<?xml version="1.0" encoding="UTF-8"?>
<svg width="486px" height="209px" viewBox="0 0 486 209" version="1.1" xmlns="http://www.w3.org/2000/svg" xmlns:xlink="http://www.w3.org/1999/xlink">
    <!-- Generator: Sketch 64 (93537) - https://sketch.com -->
    <title>Slice</title>
    <desc>Created with Sketch.</desc>
    <g id="studio" stroke="none" stroke-width="1" fill="none" fill-rule="evenodd">
        <rect id="Rectangle" stroke="#979797" stroke-width="5" fill="#F3E8B1" x="203.5" y="2.5" width="269" height="209"></rect>
        <rect id="Rectangle" stroke="#979797" fill="#CBF4D8" x="226.5" y="22.5" width="77" height="125"></rect>
        <rect id="Rectangle" stroke="#979797" fill="#F7F7F7" x="242.5" y="33.5" width="45" height="16"></rect>
        <rect id="Rectangle" stroke="#979797" fill="#F1B37D" x="226.5" y="62.5" width="77" height="85"></rect>
        <rect id="Rectangle" stroke="#979797" fill="#FFFFFF" x="316.5" y="22.5" width="105" height="19"></rect>
        <ellipse id="Oval" stroke="#979797" fill="#FFFFFF" cx="369.5" cy="66" rx="16" ry="15.5"></ellipse>
        <rect id="Rectangle" stroke="#979797" stroke-width="6" fill="#FFFFFF" x="20" y="102" width="178" height="112"></rect>
        <line x1="92.5" y1="102.290323" x2="92.5" y2="119.709677" id="Line-4" stroke="#979797" stroke-linecap="square"></line>
        <rect id="Rectangle" stroke="#979797" fill="#FFFFFF" x="102.5" y="107.5" width="22" height="36" rx="8"></rect>
        <ellipse id="Oval" stroke="#979797" fill="#FFFFFF" cx="113.5" cy="128.5" rx="5" ry="8"></ellipse>
        <rect id="Rectangle" stroke="#979797" fill="#FFFFFF" x="102.5" y="107.5" width="22" height="7" rx="3.5"></rect>
        <ellipse id="Oval" stroke="#979797" fill="#D8D8D8" cx="51.5" cy="109" rx="2" ry="1.5"></ellipse>
        <rect id="Rectangle" stroke="#000000" fill="#D8D8D8" x="152.5" y="102.5" width="44" height="112"></rect>
        <line x1="51.5" y1="102.289474" x2="51.5" y2="112.710526" id="Line-2" stroke="#979797" stroke-linecap="square"></line>
        <rect id="Rectangle" stroke="#979797" fill="#FFFFFF" x="19.5" y="102.5" width="63" height="41"></rect>
        <rect id="Rectangle-2" stroke="#979797" fill="#FFFFFF" x="30.5" y="113.5" width="41" height="19"></rect>
        <path d="M182,106.5 L165,106.5 C162.928932,106.5 161.053932,107.339466 159.696699,108.696699 C158.339466,110.053932 157.5,111.928932 157.5,114 L157.5,201 C157.5,203.071068 158.339466,204.946068 159.696699,206.303301 C161.053932,207.660534 162.928932,208.5 165,208.5 L182,208.5 C184.071068,208.5 185.946068,207.660534 187.303301,206.303301 C188.660534,204.946068 189.5,203.071068 189.5,201 L189.5,114 C189.5,111.928932 188.660534,110.053932 187.303301,108.696699 C185.946068,107.339466 184.071068,106.5 182,106.5 Z M40,99.5 C39.2979416,99.5 38.6597463,99.7321983 38.1987719,100.116344 C37.7738416,100.470452 37.5,100.956415 37.5,101.5 C37.5,102.043585 37.7738416,102.529548 38.1987719,102.883656 C38.6597463,103.267802 39.2979416,103.5 40,103.5 C40.7020584,103.5 41.3402537,103.267802 41.8012281,102.883656 C42.2261584,102.529548 42.5,102.043585 42.5,101.5 C42.5,100.956415 42.2261584,100.470452 41.8012281,100.116344 C41.3402537,99.7321983 40.7020584,99.5 40,99.5 Z" id="Rectangle-3" stroke="#979797" fill="#FFFFFF"></path>
        <line x1="175.5" y1="102.285714" x2="175.5" y2="125.714286" id="Line-3" stroke="#979797" stroke-linecap="square"></line>
        <ellipse id="Oval" stroke="#979797" fill="#FFFFFF" cx="175" cy="130" rx="2.5" ry="3.5"></ellipse>
        <rect id="Rectangle" stroke="#979797" fill="#FFFFFF" x="40.5" y="105.5" width="20" height="5" rx="2.5"></rect>
        <rect id="Rectangle" stroke="#979797" fill="#FFFFFF" x="49.5" y="105.5" width="4" height="11" rx="2"></rect>
        <rect id="Rectangle" stroke="#979797" fill="#FFFFFF" x="88.5" y="119.5" width="7" height="8"></rect>
        <ellipse id="Oval" stroke="#979797" fill="#D8D8D8" cx="92" cy="123.5" rx="3.5" ry="3"></ellipse>
        <line x1="89.2692308" y1="123.25" x2="95.7307692" y2="123.75" id="Line-5" stroke="#979797" stroke-linecap="square"></line>
        <line x1="91.2857143" y1="119.285714" x2="94.7142857" y2="126.714286" id="Line-6" stroke="#979797" stroke-linecap="square"></line>
        <line x1="91.25" y1="126.681818" x2="92.75" y2="120.318182" id="Line-7" stroke="#979797" stroke-linecap="square"></line>
        <line x1="89.2916667" y1="124.75" x2="95.7083333" y2="122.25" id="Line-8" stroke="#979797" stroke-linecap="square"></line>
        <line x1="199.5" y1="49.5" x2="204.5" y2="49.5" id="Line-17" stroke="#979797" stroke-linecap="square"></line>
        <line x1="33.5" y1="73.2291667" x2="33.5" y2="94.7708333" id="Line" stroke="#979797" fill="#FFFFFF"></line>
        <rect id="Rectangle" stroke="#979797" fill="#E5DFDF" x="60.5" y="0.5" width="142" height="97"></rect>
        <line x1="66.3095238" y1="65.2352941" x2="78.6904762" y2="72.7647059" id="Line" stroke="#979797" stroke-linecap="square"></line>
        <rect id="Rectangle" stroke="#979797" fill="#D8D8D8" x="59.5" y="34.5" width="39" height="63"></rect>
        <rect id="Rectangle-2" stroke="#979797" fill="#FFFFFF" x="64.5" y="38.5" width="29" height="20" rx="8"></rect>
        <rect id="Rectangle" stroke="#979797" fill="#FFFFFF" x="65.5" y="66.5" width="27" height="25" rx="8"></rect>
        <path d="M63,61.5 C62.2979416,61.5 61.6597463,61.7321983 61.1987719,62.1163437 C60.7738416,62.4704522 60.5,62.9564147 60.5,63.5 C60.5,64.0435853 60.7738416,64.5295478 61.1987719,64.8836563 C61.6597463,65.2678017 62.2979416,65.5 63,65.5 C63.7020584,65.5 64.3402537,65.2678017 64.8012281,64.8836563 C65.2261584,64.5295478 65.5,64.0435853 65.5,63.5 C65.5,62.9564147 65.2261584,62.4704522 64.8012281,62.1163437 C64.3402537,61.7321983 63.7020584,61.5 63,61.5 Z" id="Oval-2" stroke="#979797" fill="#F7F1F1"></path>
        <path d="M66.7620482,64.6684402 L64.7175643,65.442263 L68.6547919,72.5428953 L66.7620482,64.6684402 Z" id="Triangle" stroke="#979797" fill="#FFFFFF"></path>
        <rect id="Rectangle" stroke="#979797" fill="#D8D8D8" x="59.5" y="0.5" width="142" height="33"></rect>
        <rect id="Rectangle" stroke="#979797" fill="#D8D8D8" x="144.5" y="8.5" width="13" height="12" rx="6"></rect>
        <rect id="Rectangle" stroke="#979797" fill="#D8D8D8" x="129.5" y="5.5" width="42" height="23"></rect>
        <rect id="Rectangle" stroke="#282727" fill="#D8D8D8" x="144.5" y="7.5" width="13" height="12"></rect>
        <line x1="145.270833" y1="9.25" x2="157.729167" y2="9.25" id="Line-3" stroke="#131313" stroke-linecap="square"></line>
        <line x1="145.270833" y1="10.5" x2="157.729167" y2="10.5" id="Line-4" stroke="#030202" stroke-linecap="square"></line>
        <line x1="145.270833" y1="12.25" x2="157.729167" y2="12.25" id="Line-5" stroke="#121212" stroke-linecap="square"></line>
        <line x1="145.270833" y1="13.5" x2="157.729167" y2="13.5" id="Line-6" stroke="#131313" stroke-linecap="square"></line>
        <line x1="145.270833" y1="16.25" x2="157.729167" y2="16.25" id="Line-7" stroke="#121212" stroke-linecap="square"></line>
        <line x1="145.270833" y1="16.5" x2="157.729167" y2="16.5" id="Line-8" stroke="#1E1D1D" stroke-linecap="square"></line>
        <line x1="145.270833" y1="19.5" x2="157.729167" y2="19.5" id="Line-9" stroke="#141414" stroke-linecap="square"></line>
        <rect id="Rectangle" stroke="#303030" fill="#D8D8D8" x="131.5" y="8.5" width="10" height="17" rx="5"></rect>
        <rect id="Rectangle" stroke="#2F2E2E" fill="#D8D8D8" x="162.5" y="8.5" width="9" height="16" rx="4.5"></rect>
        <ellipse id="Oval" stroke="#979797" fill="#000000" cx="166.5" cy="12" rx="1" ry="1"></ellipse>
        <circle id="Oval" stroke="#979797" fill="#000000" cx="166.5" cy="19.5" r="1"></circle>
        <ellipse id="Oval" stroke="#979797" fill="#020202" cx="137" cy="17" rx="2.5" ry="1.5"></ellipse>
        <rect id="Rectangle" stroke="#979797" fill="#BEB0B0" x="59.5" y="0.5" width="35" height="13"></rect>
        <line x1="131.277778" y1="12.25" x2="140.722222" y2="12.25" id="Line-10" stroke="#979797" stroke-linecap="square"></line>
        <line x1="131.277778" y1="22.5" x2="140.722222" y2="22.5" id="Line-11" stroke="#979797" stroke-linecap="square"></line>
        <line x1="136.5" y1="9.21875" x2="136.5" y2="15.78125" id="Line-12" stroke="#979797" stroke-linecap="square"></line>
        <line x1="136.5" y1="19.21875" x2="136.5" y2="25.78125" id="Line-13" stroke="#979797" stroke-linecap="square"></line>
        <line x1="131.3" y1="16.5" x2="133.7" y2="16.5" id="Line-14" stroke="#979797" stroke-linecap="square"></line>
        <line x1="140.166667" y1="16.5" x2="140.833333" y2="16.5" id="Line-15" stroke="#979797" stroke-linecap="square"></line>
        <line x1="162.3" y1="12.25" x2="164.7" y2="12.25" id="Line-16" stroke="#979797" stroke-linecap="square"></line>
        <line x1="162.3" y1="20.5" x2="164.7" y2="20.5" id="Line-18" stroke="#979797" stroke-linecap="square"></line>
        <line x1="167.25" y1="13.2307692" x2="167.25" y2="18.7692308" id="Line-21" stroke="#979797" stroke-linecap="square"></line>
        <line x1="162.28125" y1="16.5" x2="170.71875" y2="16.5" id="Line-23" stroke="#979797" stroke-linecap="square"></line>
        <line x1="167.25" y1="9.33333333" x2="167.25" y2="12.6666667" id="Line-19" stroke="#979797" stroke-linecap="square"></line>
        <line x1="167.25" y1="20.4166667" x2="167.25" y2="24.5833333" id="Line-20" stroke="#979797" stroke-linecap="square"></line>
        <line x1="168.5" y1="12.25" x2="171.5" y2="12.25" id="Line-22" stroke="#979797" stroke-linecap="square"></line>
        <line x1="168.5" y1="20.25" x2="171.5" y2="20.25" id="Line-24" stroke="#979797" stroke-linecap="square"></line>
    </g>
</svg>