<?xml version="1.0" encoding="UTF-8"?>
<svg width="511px" height="589px" viewBox="0 0 511 589" version="1.1" xmlns="http://www.w3.org/2000/svg" xmlns:xlink="http://www.w3.org/1999/xlink">
    <!-- Generator: Sketch 64 (93537) - https://sketch.com -->
    <title>Slice</title>
    <desc>Created with Sketch.</desc>
    <g id="1b1b" stroke="none" stroke-width="1" fill="none" fill-rule="evenodd">
        <rect id="Rectangle" stroke="#979797" fill="#E6D9ED" x="2.5" y="185.5" width="343" height="254"></rect>
        <rect id="Rectangle" stroke="#979797" fill="#EEDCDC" x="172.5" y="351.5" width="41" height="31" rx="8"></rect>
        <rect id="Rectangle" stroke="#979797" fill="#EEDCDC" x="125.5" y="351.5" width="46" height="31" rx="8"></rect>
        <rect id="Rectangle" stroke="#979797" fill="#EEDCDC" x="166.5" y="244.5" width="46" height="31" rx="8"></rect>
        <rect id="Rectangle" stroke="#979797" fill="#EEDCDC" x="214.5" y="356.5" width="5" height="17" rx="2.5"></rect>
        <rect id="Rectangle" stroke="#979797" fill="#EEDCDC" x="119.5" y="356.5" width="5" height="17" rx="2.5"></rect>
        <line x1="256.5" y1="256.5" x2="343.5" y2="256.5" id="Line" stroke="#979797" stroke-linecap="square"></line>
        <rect id="Rectangle" stroke="#979797" fill="#D8D8D8" x="252.5" y="244.5" width="93" height="12"></rect>
        <rect id="Rectangle" stroke="#979797" fill="#EEDCDC" x="214.5" y="251.5" width="5" height="17" rx="2.5"></rect>
        <rect id="Rectangle" stroke="#979797" fill="#EEDCDC" x="112.5" y="251.5" width="5" height="17" rx="2.5"></rect>
        <rect id="Rectangle" stroke="#979797" fill="#EEDCDC" x="62.5" y="371.5" width="24" height="5" rx="2.5"></rect>
        <rect id="Rectangle" stroke="#979797" fill="#EEDCDC" x="61.5" y="325.5" width="24" height="5" rx="2.5"></rect>
        <rect id="Rectangle" stroke="#979797" fill="#EEDCDC" x="61.5" y="300.5" width="24" height="5" rx="2.5"></rect>
        <rect id="Rectangle" stroke="#979797" fill="#EEDCDC" x="54.5" y="260.5" width="39" height="39" rx="8"></rect>
        <rect id="Rectangle" stroke="#979797" fill="#EEDCDC" x="61.5" y="254.5" width="24" height="5" rx="2.5"></rect>
        <rect id="Rectangle" stroke="#979797" fill="#EEDCDC" x="54.5" y="331.5" width="39" height="39" rx="8"></rect>
        <ellipse id="Oval" stroke="#979797" fill="#BCDDAB" cx="166" cy="313.5" rx="34.5" ry="37"></ellipse>
        <rect id="Rectangle" stroke="#979797" fill="#EEDCDC" x="119.5" y="244.5" width="46" height="31" rx="8"></rect>
        <rect id="Rectangle" stroke="#979797" fill="#F5E2C7" x="252.5" y="244.5" width="93" height="135"></rect>
        <line x1="263" y1="252" x2="343.5" y2="312.5" id="Line-2" stroke="#979797" stroke-linecap="square"></line>
        <line x1="252" y1="251" x2="344" y2="251" id="Line-2" stroke="#979797" stroke-linecap="square"></line>
        <line x1="263.716158" y1="369.499395" x2="343.5" y2="313.5" id="Line-2" stroke="#979797" stroke-linecap="square"></line>
        <line x1="264" y1="244" x2="263.5" y2="377.5" id="Line-2" stroke="#979797" stroke-linecap="square"></line>
        <line x1="253" y1="370" x2="345" y2="370" id="Line-2" stroke="#979797" stroke-linecap="square"></line>
        <rect id="Rectangle" stroke="#979797" fill="#C0EBE9" x="2.5" y="244.5" width="35" height="149"></rect>
        <line x1="2.75" y1="375.25" x2="37.25" y2="375.75" id="Line-3" stroke="#979797" stroke-linecap="square"></line>
        <line x1="2.75" y1="361.25" x2="37.25" y2="361.75" id="Line-3" stroke="#979797" stroke-linecap="square"></line>
        <line x1="2.75" y1="349.25" x2="37.25" y2="349.75" id="Line-3" stroke="#979797" stroke-linecap="square"></line>
        <line x1="2.75" y1="334.25" x2="37.25" y2="334.75" id="Line-3" stroke="#979797" stroke-linecap="square"></line>
        <line x1="2.75" y1="322.25" x2="37.25" y2="322.75" id="Line-3" stroke="#979797" stroke-linecap="square"></line>
        <line x1="2.75" y1="308.25" x2="37.25" y2="308.75" id="Line-3" stroke="#979797" stroke-linecap="square"></line>
        <line x1="2.75" y1="253.25" x2="37.25" y2="253.75" id="Line-3" stroke="#979797" stroke-linecap="square"></line>
        <line x1="3" y1="294" x2="37.5" y2="293.5" id="Line-3" stroke="#979797" stroke-linecap="square"></line>
        <line x1="2.75" y1="279.25" x2="37.25" y2="279.75" id="Line-3" stroke="#979797" stroke-linecap="square"></line>
        <ellipse id="Oval" stroke="#979797" fill="#D8D8D8" cx="115" cy="319" rx="9.5" ry="8.5"></ellipse>
        <line x1="2.75" y1="268.25" x2="37.25" y2="268.75" id="Line-3" stroke="#979797" stroke-linecap="square"></line>
        <rect id="Rectangle" stroke="#979797" stroke-width="6" fill="#FFFFFF" x="3" y="442" width="227" height="144"></rect>
        <line x1="95.5" y1="443.370968" x2="95.5" y2="465.629032" id="Line-4" stroke="#979797" stroke-linecap="square"></line>
        <rect id="Rectangle" stroke="#979797" fill="#FFFFFF" x="109.5" y="449.5" width="29" height="47" rx="8"></rect>
        <ellipse id="Oval" stroke="#979797" fill="#FFFFFF" cx="123.5" cy="477" rx="7" ry="10.5"></ellipse>
        <rect id="Rectangle" stroke="#979797" fill="#FFFFFF" x="109.5" y="449.5" width="29" height="10" rx="5"></rect>
        <circle id="Oval" stroke="#979797" fill="#D8D8D8" cx="44" cy="452" r="2.5"></circle>
        <rect id="Rectangle" stroke="#000000" fill="#D8D8D8" x="172.5" y="443.5" width="56" height="142"></rect>
        <line x1="43.5" y1="443.368421" x2="43.5" y2="456.631579" id="Line-2" stroke="#979797" stroke-linecap="square"></line>
        <ellipse id="Oval" stroke="#979797" fill="#D8D8D8" cx="216" cy="483" rx="3.5" ry="4.5"></ellipse>
        <rect id="Rectangle" stroke="#979797" fill="#FFFFFF" x="5.5" y="443.5" width="78" height="54"></rect>
        <rect id="Rectangle-2" stroke="#979797" fill="#FFFFFF" x="16.5" y="457.5" width="54" height="25"></rect>
        <path d="M213,448.5 L186,448.5 C183.928932,448.5 182.053932,449.339466 180.696699,450.696699 C179.339466,452.053932 178.5,453.928932 178.5,456 L178.5,571 C178.5,573.071068 179.339466,574.946068 180.696699,576.303301 C182.053932,577.660534 183.928932,578.5 186,578.5 L213,578.5 C215.071068,578.5 216.946068,577.660534 218.303301,576.303301 C219.660534,574.946068 220.5,573.071068 220.5,571 L220.5,456 C220.5,453.928932 219.660534,452.053932 218.303301,450.696699 C216.946068,449.339466 215.071068,448.5 213,448.5 Z M29.5,439.5 C28.6715729,439.5 27.9215729,439.835786 27.3786797,440.37868 C26.8357864,440.921573 26.5,441.671573 26.5,442.5 C26.5,443.328427 26.8357864,444.078427 27.3786797,444.62132 C27.9215729,445.164214 28.6715729,445.5 29.5,445.5 C30.3284271,445.5 31.0784271,445.164214 31.6213203,444.62132 C32.1642136,444.078427 32.5,443.328427 32.5,442.5 C32.5,441.671573 32.1642136,440.921573 31.6213203,440.37868 C31.0784271,439.835786 30.3284271,439.5 29.5,439.5 Z" id="Rectangle-3" stroke="#979797" fill="#FFFFFF"></path>
        <line x1="216.5" y1="443.375" x2="216.5" y2="478.625" id="Line" stroke="#979797" fill="#FFFFFF"></line>
        <line x1="201.5" y1="442.380952" x2="201.5" y2="473.619048" id="Line-3" stroke="#979797" stroke-linecap="square"></line>
        <ellipse id="Oval" stroke="#979797" fill="#FFFFFF" cx="202" cy="479" rx="3.5" ry="4.5"></ellipse>
        <rect id="Rectangle" stroke="#979797" fill="#FFFFFF" x="30.5" y="447.5" width="25" height="7" rx="3.5"></rect>
        <rect id="Rectangle" stroke="#979797" fill="#FFFFFF" x="41.5" y="447.5" width="5" height="14" rx="2.5"></rect>
        <rect id="Rectangle" stroke="#979797" fill="#FFFFFF" x="90.5" y="465.5" width="10" height="11"></rect>
        <circle id="Oval" stroke="#979797" fill="#D8D8D8" cx="96" cy="471" r="4.5"></circle>
        <line x1="91.3846154" y1="470.25" x2="100.615385" y2="470.75" id="Line-5" stroke="#979797" stroke-linecap="square"></line>
        <line x1="94.3571429" y1="465.392857" x2="98.6428571" y2="475.607143" id="Line-6" stroke="#979797" stroke-linecap="square"></line>
        <line x1="94.375" y1="474.636364" x2="96.625" y2="467.363636" id="Line-7" stroke="#979797" stroke-linecap="square"></line>
        <line x1="91.375" y1="472.583333" x2="99.625" y2="468.416667" id="Line-8" stroke="#979797" stroke-linecap="square"></line>
        <rect id="Rectangle" stroke="#979797" fill="#E5DFDF" x="348.5" y="185.5" width="162" height="254"></rect>
        <rect id="Rectangle" stroke="#979797" fill="#D8D8D8" x="346.5" y="374.5" width="89" height="66"></rect>
        <line x1="352.238095" y1="312.441176" x2="361.761905" y2="326.558824" id="Line" stroke="#979797" stroke-linecap="square"></line>
        <rect id="Rectangle" stroke="#979797" fill="#D8D8D8" x="346.5" y="252.5" width="30" height="121"></rect>
        <rect id="Rectangle-2" stroke="#979797" fill="#FFFFFF" x="350.5" y="260.5" width="23" height="38" rx="8"></rect>
        <rect id="Rectangle" stroke="#979797" fill="#FFFFFF" x="351.5" y="313.5" width="21" height="50" rx="8"></rect>
        <path d="M348.5,305.5 C348.265691,305.5 348.045269,305.590678 347.842817,305.741624 C347.587194,305.932212 347.361497,306.214907 347.169312,306.560841 C346.751425,307.313037 346.5,308.353542 346.5,309.5 C346.5,310.646458 346.751425,311.686963 347.169312,312.439159 C347.361497,312.785093 347.587194,313.067788 347.842817,313.258376 C348.045269,313.409322 348.265691,313.5 348.5,313.5 C348.734309,313.5 348.954731,313.409322 349.157183,313.258376 C349.412806,313.067788 349.638503,312.785093 349.830688,312.439159 C350.248575,311.686963 350.5,310.646458 350.5,309.5 C350.5,308.353542 350.248575,307.313037 349.830688,306.560841 C349.638503,306.214907 349.412806,305.932212 349.157183,305.741624 C348.954731,305.590678 348.734309,305.5 348.5,305.5 Z" id="Oval-2" stroke="#979797" fill="#F7F1F1"></path>
        <path d="M350.726529,311.878576 L348.583893,313.36536 L352.710141,327.008152 L350.726529,311.878576 Z" id="Triangle" stroke="#979797" fill="#FFFFFF"></path>
        <rect id="Rectangle" stroke="#979797" fill="#D8D8D8" x="346.5" y="186.5" width="112" height="65"></rect>
        <rect id="Rectangle" stroke="#979797" fill="#D8D8D8" x="436.5" y="374.5" width="33" height="66"></rect>
        <rect id="Rectangle" stroke="#979797" fill="#D8D8D8" x="413.5" y="201.5" width="10" height="25" rx="5"></rect>
        <rect id="Rectangle" stroke="#979797" fill="#D8D8D8" x="401.5" y="198.5" width="34" height="43"></rect>
        <rect id="Rectangle" stroke="#282727" fill="#D8D8D8" x="413.5" y="199.5" width="10" height="26"></rect>
        <line x1="414.208333" y1="202.5" x2="423.791667" y2="202.5" id="Line-3" stroke="#131313" stroke-linecap="square"></line>
        <line x1="414.208333" y1="205.5" x2="423.791667" y2="205.5" id="Line-4" stroke="#030202" stroke-linecap="square"></line>
        <line x1="414.208333" y1="208.5" x2="423.791667" y2="208.5" id="Line-5" stroke="#121212" stroke-linecap="square"></line>
        <line x1="414.208333" y1="213.5" x2="423.791667" y2="213.5" id="Line-6" stroke="#131313" stroke-linecap="square"></line>
        <line x1="414.208333" y1="216.5" x2="423.791667" y2="216.5" id="Line-7" stroke="#121212" stroke-linecap="square"></line>
        <line x1="414.208333" y1="219.5" x2="423.791667" y2="219.5" id="Line-8" stroke="#1E1D1D" stroke-linecap="square"></line>
        <line x1="414.208333" y1="221.5" x2="423.791667" y2="221.5" id="Line-9" stroke="#141414" stroke-linecap="square"></line>
        <rect id="Rectangle" stroke="#303030" fill="#D8D8D8" x="402.5" y="201.5" width="8" height="34" rx="4"></rect>
        <rect id="Rectangle" stroke="#2F2E2E" fill="#D8D8D8" x="426.5" y="201.5" width="7" height="32" rx="3.5"></rect>
        <ellipse id="Oval" stroke="#979797" fill="#000000" cx="430.5" cy="209.5" rx="1" ry="3"></ellipse>
        <ellipse id="Oval" stroke="#979797" fill="#000000" cx="430.5" cy="225" rx="1" ry="2.5"></ellipse>
        <ellipse id="Oval" stroke="#979797" fill="#020202" cx="407" cy="218.5" rx="1.5" ry="3"></ellipse>
        <rect id="Rectangle" stroke="#979797" fill="#BEB0B0" x="346.5" y="186.5" width="27" height="26"></rect>
        <line x1="402.222222" y1="208.5" x2="409.777778" y2="208.5" id="Line-10" stroke="#979797" stroke-linecap="square"></line>
        <line x1="402.222222" y1="228.5" x2="409.777778" y2="228.5" id="Line-11" stroke="#979797" stroke-linecap="square"></line>
        <line x1="407.25" y1="202.4375" x2="407.25" y2="215.5625" id="Line-12" stroke="#979797" stroke-linecap="square"></line>
        <line x1="407.25" y1="221.46875" x2="407.25" y2="235.53125" id="Line-13" stroke="#979797" stroke-linecap="square"></line>
        <line x1="402.3" y1="219.5" x2="404.7" y2="219.5" id="Line-14" stroke="#979797" stroke-linecap="square"></line>
        <line x1="409.166667" y1="219.5" x2="409.833333" y2="219.5" id="Line-15" stroke="#979797" stroke-linecap="square"></line>
        <line x1="427.2" y1="209.5" x2="428.8" y2="209.5" id="Line-16" stroke="#979797" stroke-linecap="square"></line>
        <line x1="432.166667" y1="209.5" x2="433.833333" y2="209.5" id="Line-17" stroke="#979797" stroke-linecap="square"></line>
        <line x1="427.2" y1="225.5" x2="428.8" y2="225.5" id="Line-18" stroke="#979797" stroke-linecap="square"></line>
        <line x1="432.2" y1="225.5" x2="433.8" y2="225.5" id="Line-19" stroke="#979797" stroke-linecap="square"></line>
        <line x1="430.5" y1="201.428571" x2="430.5" y2="206.571429" id="Line-20" stroke="#979797" stroke-linecap="square"></line>
        <line x1="430.5" y1="213.384615" x2="430.5" y2="222.615385" id="Line-21" stroke="#979797" stroke-linecap="square"></line>
        <line x1="430.75" y1="228.4" x2="430.5" y2="232" id="Line-22" stroke="#979797" stroke-linecap="square"></line>
        <line x1="427.21875" y1="217.5" x2="433.78125" y2="217.5" id="Line-23" stroke="#979797" stroke-linecap="square"></line>
        <rect id="Rectangle" stroke="#979797" fill="#E6D9ED" x="2.5" y="185.5" width="343" height="254"></rect>
        <rect id="Rectangle" stroke="#979797" fill="#EEDCDC" x="172.5" y="351.5" width="41" height="31" rx="8"></rect>
        <rect id="Rectangle" stroke="#979797" fill="#EEDCDC" x="125.5" y="351.5" width="46" height="31" rx="8"></rect>
        <rect id="Rectangle" stroke="#979797" fill="#EEDCDC" x="166.5" y="244.5" width="46" height="31" rx="8"></rect>
        <rect id="Rectangle" stroke="#979797" fill="#EEDCDC" x="214.5" y="356.5" width="5" height="17" rx="2.5"></rect>
        <rect id="Rectangle" stroke="#979797" fill="#EEDCDC" x="119.5" y="356.5" width="5" height="17" rx="2.5"></rect>
        <line x1="256.5" y1="256.5" x2="343.5" y2="256.5" id="Line" stroke="#979797" stroke-linecap="square"></line>
        <rect id="Rectangle" stroke="#979797" fill="#D8D8D8" x="252.5" y="244.5" width="93" height="12"></rect>
        <rect id="Rectangle" stroke="#979797" fill="#EEDCDC" x="214.5" y="251.5" width="5" height="17" rx="2.5"></rect>
        <rect id="Rectangle" stroke="#979797" fill="#EEDCDC" x="112.5" y="251.5" width="5" height="17" rx="2.5"></rect>
        <rect id="Rectangle" stroke="#979797" fill="#EEDCDC" x="62.5" y="371.5" width="24" height="5" rx="2.5"></rect>
        <rect id="Rectangle" stroke="#979797" fill="#EEDCDC" x="61.5" y="325.5" width="24" height="5" rx="2.5"></rect>
        <rect id="Rectangle" stroke="#979797" fill="#EEDCDC" x="61.5" y="300.5" width="24" height="5" rx="2.5"></rect>
        <rect id="Rectangle" stroke="#979797" fill="#EEDCDC" x="54.5" y="260.5" width="39" height="39" rx="8"></rect>
        <rect id="Rectangle" stroke="#979797" fill="#EEDCDC" x="61.5" y="254.5" width="24" height="5" rx="2.5"></rect>
        <rect id="Rectangle" stroke="#979797" fill="#EEDCDC" x="54.5" y="331.5" width="39" height="39" rx="8"></rect>
        <ellipse id="Oval" stroke="#979797" fill="#BCDDAB" cx="166" cy="313.5" rx="34.5" ry="37"></ellipse>
        <rect id="Rectangle" stroke="#979797" fill="#EEDCDC" x="119.5" y="244.5" width="46" height="31" rx="8"></rect>
        <rect id="Rectangle" stroke="#979797" fill="#F5E2C7" x="252.5" y="244.5" width="93" height="135"></rect>
        <line x1="263" y1="252" x2="343.5" y2="312.5" id="Line-2" stroke="#979797" stroke-linecap="square"></line>
        <line x1="252" y1="251" x2="344" y2="251" id="Line-2" stroke="#979797" stroke-linecap="square"></line>
        <line x1="263.716158" y1="369.499395" x2="343.5" y2="313.5" id="Line-2" stroke="#979797" stroke-linecap="square"></line>
        <line x1="264" y1="244" x2="263.5" y2="377.5" id="Line-2" stroke="#979797" stroke-linecap="square"></line>
        <line x1="253" y1="370" x2="345" y2="370" id="Line-2" stroke="#979797" stroke-linecap="square"></line>
        <rect id="Rectangle" stroke="#979797" fill="#C0EBE9" x="2.5" y="244.5" width="35" height="149"></rect>
        <line x1="2.75" y1="375.25" x2="37.25" y2="375.75" id="Line-3" stroke="#979797" stroke-linecap="square"></line>
        <line x1="2.75" y1="361.25" x2="37.25" y2="361.75" id="Line-3" stroke="#979797" stroke-linecap="square"></line>
        <line x1="2.75" y1="349.25" x2="37.25" y2="349.75" id="Line-3" stroke="#979797" stroke-linecap="square"></line>
        <line x1="2.75" y1="334.25" x2="37.25" y2="334.75" id="Line-3" stroke="#979797" stroke-linecap="square"></line>
        <line x1="2.75" y1="322.25" x2="37.25" y2="322.75" id="Line-3" stroke="#979797" stroke-linecap="square"></line>
        <line x1="2.75" y1="308.25" x2="37.25" y2="308.75" id="Line-3" stroke="#979797" stroke-linecap="square"></line>
        <line x1="2.75" y1="253.25" x2="37.25" y2="253.75" id="Line-3" stroke="#979797" stroke-linecap="square"></line>
        <line x1="3" y1="294" x2="37.5" y2="293.5" id="Line-3" stroke="#979797" stroke-linecap="square"></line>
        <line x1="2.75" y1="279.25" x2="37.25" y2="279.75" id="Line-3" stroke="#979797" stroke-linecap="square"></line>
        <ellipse id="Oval" stroke="#979797" fill="#D8D8D8" cx="115" cy="319" rx="9.5" ry="8.5"></ellipse>
        <line x1="2.75" y1="268.25" x2="37.25" y2="268.75" id="Line-3" stroke="#979797" stroke-linecap="square"></line>
        <rect id="Rectangle" stroke="#979797" stroke-width="6" fill="#FFFFFF" x="3" y="442" width="227" height="144"></rect>
        <line x1="95.5" y1="443.370968" x2="95.5" y2="465.629032" id="Line-4" stroke="#979797" stroke-linecap="square"></line>
        <rect id="Rectangle" stroke="#979797" fill="#FFFFFF" x="109.5" y="449.5" width="29" height="47" rx="8"></rect>
        <ellipse id="Oval" stroke="#979797" fill="#FFFFFF" cx="123.5" cy="477" rx="7" ry="10.5"></ellipse>
        <rect id="Rectangle" stroke="#979797" fill="#FFFFFF" x="109.5" y="449.5" width="29" height="10" rx="5"></rect>
        <circle id="Oval" stroke="#979797" fill="#D8D8D8" cx="44" cy="452" r="2.5"></circle>
        <rect id="Rectangle" stroke="#000000" fill="#D8D8D8" x="172.5" y="443.5" width="56" height="142"></rect>
        <line x1="43.5" y1="443.368421" x2="43.5" y2="456.631579" id="Line-2" stroke="#979797" stroke-linecap="square"></line>
        <ellipse id="Oval" stroke="#979797" fill="#D8D8D8" cx="216" cy="483" rx="3.5" ry="4.5"></ellipse>
        <rect id="Rectangle" stroke="#979797" fill="#FFFFFF" x="5.5" y="443.5" width="78" height="54"></rect>
        <rect id="Rectangle-2" stroke="#979797" fill="#FFFFFF" x="16.5" y="457.5" width="54" height="25"></rect>
        <path d="M213,448.5 L186,448.5 C183.928932,448.5 182.053932,449.339466 180.696699,450.696699 C179.339466,452.053932 178.5,453.928932 178.5,456 L178.5,571 C178.5,573.071068 179.339466,574.946068 180.696699,576.303301 C182.053932,577.660534 183.928932,578.5 186,578.5 L213,578.5 C215.071068,578.5 216.946068,577.660534 218.303301,576.303301 C219.660534,574.946068 220.5,573.071068 220.5,571 L220.5,456 C220.5,453.928932 219.660534,452.053932 218.303301,450.696699 C216.946068,449.339466 215.071068,448.5 213,448.5 Z M29.5,439.5 C28.6715729,439.5 27.9215729,439.835786 27.3786797,440.37868 C26.8357864,440.921573 26.5,441.671573 26.5,442.5 C26.5,443.328427 26.8357864,444.078427 27.3786797,444.62132 C27.9215729,445.164214 28.6715729,445.5 29.5,445.5 C30.3284271,445.5 31.0784271,445.164214 31.6213203,444.62132 C32.1642136,444.078427 32.5,443.328427 32.5,442.5 C32.5,441.671573 32.1642136,440.921573 31.6213203,440.37868 C31.0784271,439.835786 30.3284271,439.5 29.5,439.5 Z" id="Rectangle-3" stroke="#979797" fill="#FFFFFF"></path>
        <line x1="216.5" y1="443.375" x2="216.5" y2="478.625" id="Line" stroke="#979797" fill="#FFFFFF"></line>
        <line x1="201.5" y1="442.380952" x2="201.5" y2="473.619048" id="Line-3" stroke="#979797" stroke-linecap="square"></line>
        <ellipse id="Oval" stroke="#979797" fill="#FFFFFF" cx="202" cy="479" rx="3.5" ry="4.5"></ellipse>
        <rect id="Rectangle" stroke="#979797" fill="#FFFFFF" x="30.5" y="447.5" width="25" height="7" rx="3.5"></rect>
        <rect id="Rectangle" stroke="#979797" fill="#FFFFFF" x="41.5" y="447.5" width="5" height="14" rx="2.5"></rect>
        <rect id="Rectangle" stroke="#979797" fill="#FFFFFF" x="90.5" y="465.5" width="10" height="11"></rect>
        <circle id="Oval" stroke="#979797" fill="#D8D8D8" cx="96" cy="471" r="4.5"></circle>
        <line x1="91.3846154" y1="470.25" x2="100.615385" y2="470.75" id="Line-5" stroke="#979797" stroke-linecap="square"></line>
        <line x1="94.3571429" y1="465.392857" x2="98.6428571" y2="475.607143" id="Line-6" stroke="#979797" stroke-linecap="square"></line>
        <line x1="94.375" y1="474.636364" x2="96.625" y2="467.363636" id="Line-7" stroke="#979797" stroke-linecap="square"></line>
        <line x1="91.375" y1="472.583333" x2="99.625" y2="468.416667" id="Line-8" stroke="#979797" stroke-linecap="square"></line>
        <rect id="Rectangle" stroke="#979797" fill="#E5DFDF" x="348.5" y="185.5" width="162" height="254"></rect>
        <rect id="Rectangle" stroke="#979797" fill="#D8D8D8" x="346.5" y="374.5" width="89" height="66"></rect>
        <line x1="352.238095" y1="312.441176" x2="361.761905" y2="326.558824" id="Line" stroke="#979797" stroke-linecap="square"></line>
        <rect id="Rectangle" stroke="#979797" fill="#D8D8D8" x="346.5" y="252.5" width="30" height="121"></rect>
        <rect id="Rectangle-2" stroke="#979797" fill="#FFFFFF" x="350.5" y="260.5" width="23" height="38" rx="8"></rect>
        <rect id="Rectangle" stroke="#979797" fill="#FFFFFF" x="351.5" y="313.5" width="21" height="50" rx="8"></rect>
        <path d="M348.5,305.5 C348.265691,305.5 348.045269,305.590678 347.842817,305.741624 C347.587194,305.932212 347.361497,306.214907 347.169312,306.560841 C346.751425,307.313037 346.5,308.353542 346.5,309.5 C346.5,310.646458 346.751425,311.686963 347.169312,312.439159 C347.361497,312.785093 347.587194,313.067788 347.842817,313.258376 C348.045269,313.409322 348.265691,313.5 348.5,313.5 C348.734309,313.5 348.954731,313.409322 349.157183,313.258376 C349.412806,313.067788 349.638503,312.785093 349.830688,312.439159 C350.248575,311.686963 350.5,310.646458 350.5,309.5 C350.5,308.353542 350.248575,307.313037 349.830688,306.560841 C349.638503,306.214907 349.412806,305.932212 349.157183,305.741624 C348.954731,305.590678 348.734309,305.5 348.5,305.5 Z" id="Oval-2" stroke="#979797" fill="#F7F1F1"></path>
        <path d="M350.726529,311.878576 L348.583893,313.36536 L352.710141,327.008152 L350.726529,311.878576 Z" id="Triangle" stroke="#979797" fill="#FFFFFF"></path>
        <rect id="Rectangle" stroke="#979797" fill="#D8D8D8" x="346.5" y="186.5" width="112" height="65"></rect>
        <rect id="Rectangle" stroke="#979797" fill="#D8D8D8" x="436.5" y="374.5" width="33" height="66"></rect>
        <rect id="Rectangle" stroke="#979797" fill="#D8D8D8" x="413.5" y="201.5" width="10" height="25" rx="5"></rect>
        <rect id="Rectangle" stroke="#979797" fill="#D8D8D8" x="401.5" y="198.5" width="34" height="43"></rect>
        <rect id="Rectangle" stroke="#282727" fill="#D8D8D8" x="413.5" y="199.5" width="10" height="26"></rect>
        <line x1="414.208333" y1="202.5" x2="423.791667" y2="202.5" id="Line-3" stroke="#131313" stroke-linecap="square"></line>
        <line x1="414.208333" y1="205.5" x2="423.791667" y2="205.5" id="Line-4" stroke="#030202" stroke-linecap="square"></line>
        <line x1="414.208333" y1="208.5" x2="423.791667" y2="208.5" id="Line-5" stroke="#121212" stroke-linecap="square"></line>
        <line x1="414.208333" y1="213.5" x2="423.791667" y2="213.5" id="Line-6" stroke="#131313" stroke-linecap="square"></line>
        <line x1="414.208333" y1="216.5" x2="423.791667" y2="216.5" id="Line-7" stroke="#121212" stroke-linecap="square"></line>
        <line x1="414.208333" y1="219.5" x2="423.791667" y2="219.5" id="Line-8" stroke="#1E1D1D" stroke-linecap="square"></line>
        <line x1="414.208333" y1="221.5" x2="423.791667" y2="221.5" id="Line-9" stroke="#141414" stroke-linecap="square"></line>
        <rect id="Rectangle" stroke="#303030" fill="#D8D8D8" x="402.5" y="201.5" width="8" height="34" rx="4"></rect>
        <rect id="Rectangle" stroke="#2F2E2E" fill="#D8D8D8" x="426.5" y="201.5" width="7" height="32" rx="3.5"></rect>
        <ellipse id="Oval" stroke="#979797" fill="#000000" cx="430.5" cy="209.5" rx="1" ry="3"></ellipse>
        <ellipse id="Oval" stroke="#979797" fill="#000000" cx="430.5" cy="225" rx="1" ry="2.5"></ellipse>
        <ellipse id="Oval" stroke="#979797" fill="#020202" cx="407" cy="218.5" rx="1.5" ry="3"></ellipse>
        <rect id="Rectangle" stroke="#979797" fill="#BEB0B0" x="346.5" y="186.5" width="27" height="26"></rect>
        <line x1="402.222222" y1="208.5" x2="409.777778" y2="208.5" id="Line-10" stroke="#979797" stroke-linecap="square"></line>
        <line x1="402.222222" y1="228.5" x2="409.777778" y2="228.5" id="Line-11" stroke="#979797" stroke-linecap="square"></line>
        <line x1="407.25" y1="202.4375" x2="407.25" y2="215.5625" id="Line-12" stroke="#979797" stroke-linecap="square"></line>
        <line x1="407.25" y1="221.46875" x2="407.25" y2="235.53125" id="Line-13" stroke="#979797" stroke-linecap="square"></line>
        <line x1="402.3" y1="219.5" x2="404.7" y2="219.5" id="Line-14" stroke="#979797" stroke-linecap="square"></line>
        <line x1="409.166667" y1="219.5" x2="409.833333" y2="219.5" id="Line-15" stroke="#979797" stroke-linecap="square"></line>
        <line x1="427.2" y1="209.5" x2="428.8" y2="209.5" id="Line-16" stroke="#979797" stroke-linecap="square"></line>
        <line x1="432.166667" y1="209.5" x2="433.833333" y2="209.5" id="Line-17" stroke="#979797" stroke-linecap="square"></line>
        <line x1="427.2" y1="225.5" x2="428.8" y2="225.5" id="Line-18" stroke="#979797" stroke-linecap="square"></line>
        <line x1="432.2" y1="225.5" x2="433.8" y2="225.5" id="Line-19" stroke="#979797" stroke-linecap="square"></line>
        <line x1="430.5" y1="201.428571" x2="430.5" y2="206.571429" id="Line-20" stroke="#979797" stroke-linecap="square"></line>
        <line x1="430.5" y1="213.384615" x2="430.5" y2="222.615385" id="Line-21" stroke="#979797" stroke-linecap="square"></line>
        <line x1="430.75" y1="228.4" x2="430.5" y2="232" id="Line-22" stroke="#979797" stroke-linecap="square"></line>
        <line x1="427.21875" y1="217.5" x2="433.78125" y2="217.5" id="Line-23" stroke="#979797" stroke-linecap="square"></line>
        <rect id="Rectangle" stroke="#979797" stroke-width="5" fill="#DBD9F6" x="2.5" y="2.5" width="247" height="182"></rect>
        <rect id="Rectangle" stroke="#979797" fill="#7CCF96" x="30.5" y="25.5" width="77" height="124"></rect>
        <rect id="Rectangle" stroke="#979797" fill="#F7F7F7" x="46.5" y="36.5" width="45" height="16"></rect>
        <rect id="Rectangle" stroke="#979797" fill="#7DB4F1" x="30.5" y="65.5" width="77" height="84"></rect>
        <rect id="Rectangle" stroke="#979797" fill="#FFFFFF" x="120.5" y="25.5" width="104" height="19"></rect>
        <circle id="Oval" stroke="#979797" fill="#FFFFFF" cx="173" cy="69" r="15.5"></circle>
    </g>
</svg>