<?xml version="1.0" encoding="UTF-8"?>
<svg width="685px" height="668px" viewBox="0 0 685 668" version="1.1" xmlns="http://www.w3.org/2000/svg" xmlns:xlink="http://www.w3.org/1999/xlink">
    <!-- Generator: Sketch 64 (93537) - https://sketch.com -->
    <title>Slice</title>
    <desc>Created with Sketch.</desc>
    <g id="2b2b" stroke="none" stroke-width="1" fill="none" fill-rule="evenodd">
        <rect id="Rectangle" stroke="#979797" stroke-width="5" fill="#F0CCCC" x="251.5" y="7.5" width="247" height="182"></rect>
        <rect id="Rectangle" stroke="#979797" fill="#F3EDDE" x="274.5" y="27.5" width="77" height="124"></rect>
        <rect id="Rectangle" stroke="#979797" fill="#D4F4EB" x="290.5" y="38.5" width="45" height="16"></rect>
        <rect id="Rectangle" stroke="#979797" fill="#E6D5F0" x="274.5" y="67.5" width="77" height="84"></rect>
        <rect id="Rectangle" stroke="#979797" fill="#FFFFFF" x="364.5" y="27.5" width="104" height="19"></rect>
        <circle id="Oval" stroke="#979797" fill="#FFFFFF" cx="417" cy="71" r="15.5"></circle>
        <g id="Group" transform="translate(246.000000, 183.000000)" stroke="#979797">
            <rect id="Rectangle" fill="#E6D9ED" x="0.5" y="0.5" width="435" height="297"></rect>
            <rect id="Rectangle" fill="#EEDCDC" x="216.5" y="194.5" width="52" height="36" rx="8"></rect>
            <rect id="Rectangle" fill="#EEDCDC" x="156.5" y="194.5" width="59" height="36" rx="8"></rect>
            <rect id="Rectangle" fill="#EEDCDC" x="208.5" y="69.5" width="59" height="36" rx="8"></rect>
            <rect id="Rectangle" fill="#EEDCDC" x="268.5" y="200.5" width="7" height="20" rx="3.5"></rect>
            <rect id="Rectangle" fill="#EEDCDC" x="148.5" y="200.5" width="7" height="20" rx="3.5"></rect>
            <line x1="322.636364" y1="83.5" x2="433.363636" y2="83.5" id="Line" stroke-linecap="square"></line>
            <rect id="Rectangle" fill="#D8D8D8" x="317.5" y="69.5" width="118" height="14"></rect>
            <rect id="Rectangle" fill="#EEDCDC" x="268.5" y="77.5" width="7" height="20" rx="3.5"></rect>
            <rect id="Rectangle" fill="#EEDCDC" x="139.5" y="77.5" width="7" height="20" rx="3.5"></rect>
            <rect id="Rectangle" fill="#EEDCDC" x="76.5" y="217.5" width="31" height="6" rx="3"></rect>
            <rect id="Rectangle" fill="#EEDCDC" x="75.5" y="164.5" width="31" height="6" rx="3"></rect>
            <rect id="Rectangle" fill="#EEDCDC" x="75.5" y="134.5" width="31" height="6" rx="3"></rect>
            <rect id="Rectangle" fill="#EEDCDC" x="66.5" y="88.5" width="50" height="46" rx="8"></rect>
            <rect id="Rectangle" fill="#EEDCDC" x="75.5" y="81.5" width="31" height="6" rx="3"></rect>
            <rect id="Rectangle" fill="#EEDCDC" x="66.5" y="170.5" width="50" height="46" rx="8"></rect>
            <ellipse id="Oval" fill="#BCDDAB" cx="207.5" cy="150" rx="44" ry="43.5"></ellipse>
            <rect id="Rectangle" fill="#EEDCDC" x="148.5" y="69.5" width="59" height="36" rx="8"></rect>
            <rect id="Rectangle" fill="#F5E2C7" x="317.5" y="69.5" width="118" height="158"></rect>
            <line x1="331" y1="78" x2="433.364198" y2="148.418033" id="Line-2" stroke-linecap="square"></line>
            <line x1="316.634409" y1="77.5" x2="433.365591" y2="77.5" id="Line-2" stroke-linecap="square"></line>
            <line x1="332" y1="216.244699" x2="432.727101" y2="150.420848" id="Line-2" stroke-linecap="square"></line>
            <line x1="332.25" y1="69" x2="331.5" y2="225.414179" id="Line-2" stroke-linecap="square"></line>
            <line x1="317.634409" y1="216.5" x2="434.365591" y2="216.5" id="Line-2" stroke-linecap="square"></line>
            <rect id="Rectangle" fill="#C0EBE9" x="0.5" y="69.5" width="45" height="174"></rect>
            <line x1="1" y1="222" x2="44.3714286" y2="222.5" id="Line-3" stroke-linecap="square"></line>
            <line x1="1" y1="206" x2="44.3714286" y2="206.5" id="Line-3" stroke-linecap="square"></line>
            <line x1="1" y1="192" x2="44.3714286" y2="192.5" id="Line-3" stroke-linecap="square"></line>
            <line x1="1" y1="174" x2="44.3714286" y2="174.5" id="Line-3" stroke-linecap="square"></line>
            <line x1="1" y1="160" x2="44.3714286" y2="160.5" id="Line-3" stroke-linecap="square"></line>
            <line x1="1" y1="144" x2="44.3714286" y2="144.5" id="Line-3" stroke-linecap="square"></line>
            <line x1="1" y1="80" x2="44.3714286" y2="80.5" id="Line-3" stroke-linecap="square"></line>
            <line x1="1" y1="127" x2="44.3714286" y2="126.5" id="Line-3" stroke-linecap="square"></line>
            <line x1="1" y1="110" x2="44.3714286" y2="110.5" id="Line-3" stroke-linecap="square"></line>
            <ellipse id="Oval" fill="#D8D8D8" cx="143.5" cy="156.5" rx="12" ry="10"></ellipse>
            <line x1="1" y1="97" x2="44.3714286" y2="97.5" id="Line-3" stroke-linecap="square"></line>
        </g>
        <rect id="Rectangle" stroke="#979797" stroke-width="5" fill="#F3E8B1" x="244.5" y="481.5" width="248" height="183"></rect>
        <rect id="Rectangle" stroke="#979797" fill="#CBF4D8" x="270.5" y="506.5" width="77" height="125"></rect>
        <rect id="Rectangle" stroke="#979797" fill="#F7F7F7" x="286.5" y="517.5" width="45" height="16"></rect>
        <rect id="Rectangle" stroke="#979797" fill="#F1B37D" x="270.5" y="546.5" width="77" height="85"></rect>
        <rect id="Rectangle" stroke="#979797" fill="#FFFFFF" x="360.5" y="506.5" width="105" height="19"></rect>
        <ellipse id="Oval" stroke="#979797" fill="#FFFFFF" cx="413.5" cy="550" rx="16" ry="15.5"></ellipse>
        <rect id="Rectangle" stroke="#979797" fill="#E5DFDF" x="18.5" y="181.5" width="227" height="166"></rect>
        <rect id="Rectangle" stroke="#979797" fill="#D8D8D8" x="18.5" y="304.5" width="125" height="43"></rect>
        <line x1="27.3095238" y1="263.294118" x2="39.6904762" y2="272.705882" id="Line" stroke="#979797" stroke-linecap="square"></line>
        <rect id="Rectangle" stroke="#979797" fill="#D8D8D8" x="18.5" y="225.5" width="43" height="78"></rect>
        <rect id="Rectangle-2" stroke="#979797" fill="#FFFFFF" x="23.5" y="230.5" width="33" height="25" rx="8"></rect>
        <rect id="Rectangle" stroke="#979797" fill="#FFFFFF" x="25.5" y="264.5" width="29" height="33" rx="8"></rect>
        <path d="M23.5,258.5 C22.6618195,258.5 21.9006214,258.786794 21.350522,259.258308 C20.8304944,259.704046 20.5,260.317248 20.5,261 C20.5,261.682752 20.8304944,262.295954 21.350522,262.741692 C21.9006214,263.213206 22.6618195,263.5 23.5,263.5 C24.3381805,263.5 25.0993786,263.213206 25.649478,262.741692 C26.1695056,262.295954 26.5,261.682752 26.5,261 C26.5,260.317248 26.1695056,259.704046 25.649478,259.258308 C25.0993786,258.786794 24.3381805,258.5 23.5,258.5 Z" id="Oval-2" stroke="#979797" fill="#F7F1F1"></path>
        <path d="M26.811499,262.64019 L23.7651373,263.649088 L29.6317619,272.906783 L26.811499,262.64019 Z" id="Triangle" stroke="#979797" fill="#FFFFFF"></path>
        <rect id="Rectangle" stroke="#979797" fill="#D8D8D8" x="18.5" y="181.5" width="157" height="43"></rect>
        <rect id="Rectangle" stroke="#979797" fill="#D8D8D8" x="144.5" y="304.5" width="46" height="43"></rect>
        <rect id="Rectangle" stroke="#979797" fill="#D8D8D8" x="112.5" y="191.5" width="14" height="16" rx="7"></rect>
        <rect id="Rectangle" stroke="#979797" fill="#D8D8D8" x="95.5" y="188.5" width="48" height="28"></rect>
        <rect id="Rectangle" stroke="#282727" fill="#D8D8D8" x="112.5" y="190.5" width="14" height="16"></rect>
        <line x1="112.3125" y1="192.25" x2="126.6875" y2="192.25" id="Line-3" stroke="#131313" stroke-linecap="square"></line>
        <line x1="112.3125" y1="194.25" x2="126.6875" y2="194.25" id="Line-4" stroke="#030202" stroke-linecap="square"></line>
        <line x1="112.3125" y1="196.25" x2="126.6875" y2="196.25" id="Line-5" stroke="#121212" stroke-linecap="square"></line>
        <line x1="112.3125" y1="198.5" x2="126.6875" y2="198.5" id="Line-6" stroke="#131313" stroke-linecap="square"></line>
        <line x1="112.3125" y1="201.25" x2="126.6875" y2="201.25" id="Line-7" stroke="#121212" stroke-linecap="square"></line>
        <line x1="112.3125" y1="202.5" x2="126.6875" y2="202.5" id="Line-8" stroke="#1E1D1D" stroke-linecap="square"></line>
        <line x1="112.3125" y1="205.25" x2="126.6875" y2="205.25" id="Line-9" stroke="#141414" stroke-linecap="square"></line>
        <rect id="Rectangle" stroke="#303030" fill="#D8D8D8" x="97.5" y="191.5" width="11" height="22" rx="5.5"></rect>
        <rect id="Rectangle" stroke="#2F2E2E" fill="#D8D8D8" x="130.5" y="191.5" width="11" height="20" rx="5.5"></rect>
        <circle id="Oval" stroke="#979797" fill="#000000" cx="136" cy="196" r="1.5"></circle>
        <circle id="Oval" stroke="#979797" fill="#000000" cx="136" cy="207" r="1.5"></circle>
        <ellipse id="Oval" stroke="#979797" fill="#020202" cx="103" cy="202.5" rx="2.5" ry="2"></ellipse>
        <rect id="Rectangle" stroke="#979797" fill="#BEB0B0" x="18.5" y="181.5" width="38" height="17"></rect>
        <line x1="97.3055556" y1="196.25" x2="107.694444" y2="196.25" id="Line-10" stroke="#979797" stroke-linecap="square"></line>
        <line x1="97.3055556" y1="208.5" x2="107.694444" y2="208.5" id="Line-11" stroke="#979797" stroke-linecap="square"></line>
        <line x1="102.5" y1="192.28125" x2="102.5" y2="200.71875" id="Line-12" stroke="#979797" stroke-linecap="square"></line>
        <line x1="102.5" y1="205.28125" x2="102.5" y2="213.71875" id="Line-13" stroke="#979797" stroke-linecap="square"></line>
        <line x1="97.3" y1="202.5" x2="99.7" y2="202.5" id="Line-14" stroke="#979797" stroke-linecap="square"></line>
        <line x1="106.333333" y1="202.5" x2="107.666667" y2="202.5" id="Line-15" stroke="#979797" stroke-linecap="square"></line>
        <line x1="131.3" y1="196.5" x2="133.7" y2="196.5" id="Line-16" stroke="#979797" stroke-linecap="square"></line>
        <line x1="138.333333" y1="196.5" x2="141.666667" y2="196.5" id="Line-17" stroke="#979797" stroke-linecap="square"></line>
        <line x1="131.3" y1="207.25" x2="133.7" y2="207.25" id="Line-18" stroke="#979797" stroke-linecap="square"></line>
        <line x1="138.3" y1="207.25" x2="140.7" y2="207.25" id="Line-19" stroke="#979797" stroke-linecap="square"></line>
        <line x1="135.5" y1="191.285714" x2="135.5" y2="194.714286" id="Line-20" stroke="#979797" stroke-linecap="square"></line>
        <line x1="135.5" y1="198.307692" x2="135.5" y2="205.692308" id="Line-21" stroke="#979797" stroke-linecap="square"></line>
        <line x1="135.75" y1="209.3" x2="135.5" y2="212" id="Line-22" stroke="#979797" stroke-linecap="square"></line>
        <line x1="131.3125" y1="201.5" x2="140.6875" y2="201.5" id="Line-23" stroke="#979797" stroke-linecap="square"></line>
        <rect id="Rectangle" stroke="#979797" fill="#FAF0CA" x="501.5" y="5.5" width="174" height="181"></rect>
        <rect id="Rectangle" stroke="#979797" fill="#896F6F" x="501.5" y="108.5" width="31" height="78"></rect>
        <rect id="Rectangle" stroke="#979797" fill="#A78080" x="533.5" y="154.5" width="64" height="32"></rect>
        <rect id="Rectangle" stroke="#979797" fill-opacity="0.8" fill="#766666" x="598.5" y="154.5" width="64" height="32"></rect>
        <rect id="Rectangle" stroke="#979797" fill="#D8D8D8" x="539.5" y="68.5" width="5" height="29" rx="2.5"></rect>
        <rect id="Rectangle" stroke="#979797" fill="#5D4949" x="501.5" y="5.5" width="137" height="40"></rect>
        <rect id="Rectangle" stroke="#979797" fill="#D8D8D8" x="545.5" y="57.5" width="58" height="51" rx="8"></rect>
        <rect id="Rectangle" stroke="#979797" fill="#D8D8D8" x="604.5" y="68.5" width="5" height="29" rx="2.5"></rect>
        <rect id="Rectangle" stroke="#979797" stroke-width="6" fill="#FFFFFF" x="497" y="484" width="188" height="119"></rect>
        <line x1="573.5" y1="484.306452" x2="573.5" y2="502.693548" id="Line-4" stroke="#979797" stroke-linecap="square"></line>
        <rect id="Rectangle" stroke="#979797" fill="#FFFFFF" x="585.5" y="490.5" width="24" height="39" rx="8"></rect>
        <ellipse id="Oval" stroke="#979797" fill="#FFFFFF" cx="597" cy="512.5" rx="5.5" ry="9"></ellipse>
        <rect id="Rectangle" stroke="#979797" fill="#FFFFFF" x="585.5" y="490.5" width="24" height="7" rx="3.5"></rect>
        <ellipse id="Oval" stroke="#979797" fill="#D8D8D8" cx="530.5" cy="492" rx="2" ry="1.5"></ellipse>
        <rect id="Rectangle" stroke="#000000" fill="#D8D8D8" x="637.5" y="484.5" width="47" height="119"></rect>
        <line x1="530.5" y1="484.315789" x2="530.5" y2="495.684211" id="Line-2" stroke="#979797" stroke-linecap="square"></line>
        <ellipse id="Oval" stroke="#979797" fill="#D8D8D8" cx="674" cy="518" rx="2.5" ry="3.5"></ellipse>
        <rect id="Rectangle" stroke="#979797" fill="#FFFFFF" x="498.5" y="484.5" width="65" height="45"></rect>
        <rect id="Rectangle-2" stroke="#979797" fill="#FFFFFF" x="508.5" y="496.5" width="44" height="21"></rect>
        <path d="M670,489.5 L650,489.5 C647.928932,489.5 646.053932,490.339466 644.696699,491.696699 C643.339466,493.053932 642.5,494.928932 642.5,497 L642.5,590 C642.5,592.071068 643.339466,593.946068 644.696699,595.303301 C646.053932,596.660534 647.928932,597.5 650,597.5 L670,597.5 C672.071068,597.5 673.946068,596.660534 675.303301,595.303301 C676.660534,593.946068 677.5,592.071068 677.5,590 L677.5,497 C677.5,494.928932 676.660534,493.053932 675.303301,491.696699 C673.946068,490.339466 672.071068,489.5 670,489.5 Z M518,481.5 C517.309644,481.5 516.684644,481.779822 516.232233,482.232233 C515.779822,482.684644 515.5,483.309644 515.5,484 C515.5,484.690356 515.779822,485.315356 516.232233,485.767767 C516.684644,486.220178 517.309644,486.5 518,486.5 C518.690356,486.5 519.315356,486.220178 519.767767,485.767767 C520.220178,485.315356 520.5,484.690356 520.5,484 C520.5,483.309644 520.220178,482.684644 519.767767,482.232233 C519.315356,481.779822 518.690356,481.5 518,481.5 Z" id="Rectangle-3" stroke="#979797" fill="#FFFFFF"></path>
        <line x1="674.5" y1="484.3125" x2="674.5" y2="513.6875" id="Line" stroke="#979797" fill="#FFFFFF"></line>
        <line x1="662.25" y1="484.309524" x2="662.25" y2="509.690476" id="Line-3" stroke="#979797" stroke-linecap="square"></line>
        <ellipse id="Oval" stroke="#979797" fill="#FFFFFF" cx="662" cy="514" rx="2.5" ry="3.5"></ellipse>
        <rect id="Rectangle" stroke="#979797" fill="#FFFFFF" x="519.5" y="487.5" width="21" height="6" rx="3"></rect>
        <rect id="Rectangle" stroke="#979797" fill="#FFFFFF" x="528.5" y="488.5" width="4" height="11" rx="2"></rect>
        <rect id="Rectangle" stroke="#979797" fill="#FFFFFF" x="569.5" y="503.5" width="8" height="8"></rect>
        <ellipse id="Oval" stroke="#979797" fill="#D8D8D8" cx="574" cy="507.5" rx="3.5" ry="4"></ellipse>
        <line x1="570.307692" y1="507.25" x2="577.692308" y2="507.75" id="Line-5" stroke="#979797" stroke-linecap="square"></line>
        <line x1="572.357143" y1="503.321429" x2="576.642857" y2="511.678571" id="Line-6" stroke="#979797" stroke-linecap="square"></line>
        <line x1="573.25" y1="510.681818" x2="574.75" y2="504.318182" id="Line-7" stroke="#979797" stroke-linecap="square"></line>
        <line x1="570.333333" y1="508.666667" x2="577.666667" y2="505.333333" id="Line-8" stroke="#979797" stroke-linecap="square"></line>
        <rect id="Rectangle" stroke="#979797" stroke-width="6" fill="#FFFFFF" x="497" y="484" width="188" height="119"></rect>
        <line x1="573.5" y1="484.306452" x2="573.5" y2="502.693548" id="Line-4" stroke="#979797" stroke-linecap="square"></line>
        <rect id="Rectangle" stroke="#979797" fill="#FFFFFF" x="585.5" y="490.5" width="24" height="39" rx="8"></rect>
        <ellipse id="Oval" stroke="#979797" fill="#FFFFFF" cx="597" cy="512.5" rx="5.5" ry="9"></ellipse>
        <rect id="Rectangle" stroke="#000000" fill="#D8D8D8" x="637.5" y="484.5" width="47" height="119"></rect>
        <ellipse id="Oval" stroke="#979797" fill="#D8D8D8" cx="674" cy="518" rx="2.5" ry="3.5"></ellipse>
        <rect id="Rectangle" stroke="#979797" fill="#FFFFFF" x="498.5" y="484.5" width="65" height="45"></rect>
        <path d="M670,489.5 L650,489.5 C647.928932,489.5 646.053932,490.339466 644.696699,491.696699 C643.339466,493.053932 642.5,494.928932 642.5,497 L642.5,590 C642.5,592.071068 643.339466,593.946068 644.696699,595.303301 C646.053932,596.660534 647.928932,597.5 650,597.5 L670,597.5 C672.071068,597.5 673.946068,596.660534 675.303301,595.303301 C676.660534,593.946068 677.5,592.071068 677.5,590 L677.5,497 C677.5,494.928932 676.660534,493.053932 675.303301,491.696699 C673.946068,490.339466 672.071068,489.5 670,489.5 Z M518,481.5 C517.309644,481.5 516.684644,481.779822 516.232233,482.232233 C515.779822,482.684644 515.5,483.309644 515.5,484 C515.5,484.690356 515.779822,485.315356 516.232233,485.767767 C516.684644,486.220178 517.309644,486.5 518,486.5 C518.690356,486.5 519.315356,486.220178 519.767767,485.767767 C520.220178,485.315356 520.5,484.690356 520.5,484 C520.5,483.309644 520.220178,482.684644 519.767767,482.232233 C519.315356,481.779822 518.690356,481.5 518,481.5 Z" id="Rectangle-3" stroke="#979797" fill="#FFFFFF"></path>
        <line x1="674.5" y1="484.3125" x2="674.5" y2="513.6875" id="Line" stroke="#979797" fill="#FFFFFF"></line>
        <line x1="662.25" y1="484.309524" x2="662.25" y2="509.690476" id="Line-3" stroke="#979797" stroke-linecap="square"></line>
        <ellipse id="Oval" stroke="#979797" fill="#FFFFFF" cx="662" cy="514" rx="2.5" ry="3.5"></ellipse>
        <rect id="Rectangle" stroke="#979797" fill="#FFFFFF" x="569.5" y="503.5" width="8" height="8"></rect>
        <ellipse id="Oval" stroke="#979797" fill="#D8D8D8" cx="574" cy="507.5" rx="3.5" ry="4"></ellipse>
        <line x1="570.307692" y1="507.25" x2="577.692308" y2="507.75" id="Line-5" stroke="#979797" stroke-linecap="square"></line>
        <line x1="572.357143" y1="503.321429" x2="576.642857" y2="511.678571" id="Line-6" stroke="#979797" stroke-linecap="square"></line>
        <line x1="573.25" y1="510.681818" x2="574.75" y2="504.318182" id="Line-7" stroke="#979797" stroke-linecap="square"></line>
        <line x1="570.333333" y1="508.666667" x2="577.666667" y2="505.333333" id="Line-8" stroke="#979797" stroke-linecap="square"></line>
        <rect id="Rectangle" stroke="#979797" stroke-width="6" fill="#FFFFFF" x="55" y="352" width="188" height="119"></rect>
        <line x1="131.5" y1="352.306452" x2="131.5" y2="370.693548" id="Line-4" stroke="#979797" stroke-linecap="square"></line>
        <rect id="Rectangle" stroke="#979797" fill="#FFFFFF" x="143.5" y="358.5" width="24" height="39" rx="8"></rect>
        <ellipse id="Oval" stroke="#979797" fill="#FFFFFF" cx="155" cy="380.5" rx="5.5" ry="9"></ellipse>
        <rect id="Rectangle" stroke="#979797" fill="#FFFFFF" x="143.5" y="358.5" width="24" height="7" rx="3.5"></rect>
        <rect id="Rectangle" stroke="#000000" fill="#D8D8D8" x="195.5" y="352.5" width="47" height="119"></rect>
        <ellipse id="Oval" stroke="#979797" fill="#D8D8D8" cx="232" cy="386" rx="2.5" ry="3.5"></ellipse>
        <rect id="Rectangle" stroke="#979797" fill="#FFFFFF" x="56.5" y="352.5" width="65" height="45"></rect>
        <rect id="Rectangle-2" stroke="#979797" fill="#FFFFFF" x="66.5" y="364.5" width="44" height="21"></rect>
        <rect id="Rectangle-2" stroke="#979797" fill="#FFFFFF" x="506.5" y="501.5" width="44" height="21"></rect>
        <path d="M228,357.5 L208,357.5 C205.928932,357.5 204.053932,358.339466 202.696699,359.696699 C201.339466,361.053932 200.5,362.928932 200.5,365 L200.5,458 C200.5,460.071068 201.339466,461.946068 202.696699,463.303301 C204.053932,464.660534 205.928932,465.5 208,465.5 L228,465.5 C230.071068,465.5 231.946068,464.660534 233.303301,463.303301 C234.660534,461.946068 235.5,460.071068 235.5,458 L235.5,365 C235.5,362.928932 234.660534,361.053932 233.303301,359.696699 C231.946068,358.339466 230.071068,357.5 228,357.5 Z M76,349.5 C75.3096441,349.5 74.6846441,349.779822 74.232233,350.232233 C73.779822,350.684644 73.5,351.309644 73.5,352 C73.5,352.690356 73.779822,353.315356 74.232233,353.767767 C74.6846441,354.220178 75.3096441,354.5 76,354.5 C76.6903559,354.5 77.3153559,354.220178 77.767767,353.767767 C78.220178,353.315356 78.5,352.690356 78.5,352 C78.5,351.309644 78.220178,350.684644 77.767767,350.232233 C77.3153559,349.779822 76.6903559,349.5 76,349.5 Z" id="Rectangle-3" stroke="#979797" fill="#FFFFFF"></path>
        <line x1="232.5" y1="352.3125" x2="232.5" y2="381.6875" id="Line" stroke="#979797" fill="#FFFFFF"></line>
        <line x1="220.25" y1="352.309524" x2="220.25" y2="377.690476" id="Line-3" stroke="#979797" stroke-linecap="square"></line>
        <ellipse id="Oval" stroke="#979797" fill="#FFFFFF" cx="220" cy="382" rx="2.5" ry="3.5"></ellipse>
        <rect id="Rectangle" stroke="#979797" fill="#FFFFFF" x="86.5" y="356.5" width="4" height="11" rx="2"></rect>
        <rect id="Rectangle" stroke="#979797" fill="#FFFFFF" x="527.5" y="496.5" width="4" height="11" rx="2"></rect>
        <rect id="Rectangle" stroke="#979797" fill="#FFFFFF" x="127.5" y="371.5" width="8" height="8"></rect>
        <ellipse id="Oval" stroke="#979797" fill="#D8D8D8" cx="132" cy="375.5" rx="3.5" ry="4"></ellipse>
        <line x1="128.307692" y1="375.25" x2="135.692308" y2="375.75" id="Line-5" stroke="#979797" stroke-linecap="square"></line>
        <line x1="130.357143" y1="371.321429" x2="134.642857" y2="379.678571" id="Line-6" stroke="#979797" stroke-linecap="square"></line>
        <line x1="131.25" y1="378.681818" x2="132.75" y2="372.318182" id="Line-7" stroke="#979797" stroke-linecap="square"></line>
        <line x1="128.333333" y1="376.666667" x2="135.666667" y2="373.333333" id="Line-8" stroke="#979797" stroke-linecap="square"></line>
    </g>
</svg>