<?xml version="1.0" encoding="UTF-8"?>
<svg width="652px" height="637px" viewBox="0 0 652 637" version="1.1" xmlns="http://www.w3.org/2000/svg" xmlns:xlink="http://www.w3.org/1999/xlink">
    <!-- Generator: Sketch 64 (93537) - https://sketch.com -->
    <title>Slice</title>
    <desc>Created with Sketch.</desc>
    <g id="2b2b" stroke="none" stroke-width="1" fill="none" fill-rule="evenodd">
        <g id="Group" transform="translate(18.000000, 154.000000)" stroke="#979797">
            <rect id="Rectangle" fill="#E6D9ED" x="0.5" y="0.5" width="435" height="297"></rect>
            <rect id="Rectangle" fill="#EEDCDC" x="216.5" y="194.5" width="52" height="36" rx="8"></rect>
            <rect id="Rectangle" fill="#EEDCDC" x="156.5" y="194.5" width="59" height="36" rx="8"></rect>
            <rect id="Rectangle" fill="#EEDCDC" x="208.5" y="69.5" width="59" height="36" rx="8"></rect>
            <rect id="Rectangle" fill="#EEDCDC" x="268.5" y="200.5" width="7" height="20" rx="3.5"></rect>
            <rect id="Rectangle" fill="#EEDCDC" x="148.5" y="200.5" width="7" height="20" rx="3.5"></rect>
            <line x1="322.636364" y1="83.5" x2="433.363636" y2="83.5" id="Line" stroke-linecap="square"></line>
            <rect id="Rectangle" fill="#D8D8D8" x="317.5" y="69.5" width="118" height="14"></rect>
            <rect id="Rectangle" fill="#EEDCDC" x="268.5" y="77.5" width="7" height="20" rx="3.5"></rect>
            <rect id="Rectangle" fill="#EEDCDC" x="139.5" y="77.5" width="7" height="20" rx="3.5"></rect>
            <rect id="Rectangle" fill="#EEDCDC" x="76.5" y="217.5" width="31" height="6" rx="3"></rect>
            <rect id="Rectangle" fill="#EEDCDC" x="75.5" y="164.5" width="31" height="6" rx="3"></rect>
            <rect id="Rectangle" fill="#EEDCDC" x="75.5" y="134.5" width="31" height="6" rx="3"></rect>
            <rect id="Rectangle" fill="#EEDCDC" x="66.5" y="88.5" width="50" height="46" rx="8"></rect>
            <rect id="Rectangle" fill="#EEDCDC" x="75.5" y="81.5" width="31" height="6" rx="3"></rect>
            <rect id="Rectangle" fill="#EEDCDC" x="66.5" y="170.5" width="50" height="46" rx="8"></rect>
            <ellipse id="Oval" fill="#BCDDAB" cx="207.5" cy="150" rx="44" ry="43.5"></ellipse>
            <rect id="Rectangle" fill="#EEDCDC" x="148.5" y="69.5" width="59" height="36" rx="8"></rect>
            <rect id="Rectangle" fill="#F5E2C7" x="317.5" y="69.5" width="118" height="158"></rect>
            <line x1="331" y1="78" x2="433.364198" y2="148.418033" id="Line-2" stroke-linecap="square"></line>
            <line x1="316.634409" y1="77.5" x2="433.365591" y2="77.5" id="Line-2" stroke-linecap="square"></line>
            <line x1="332" y1="216.244699" x2="432.727101" y2="150.420848" id="Line-2" stroke-linecap="square"></line>
            <line x1="332.25" y1="69" x2="331.5" y2="225.414179" id="Line-2" stroke-linecap="square"></line>
            <line x1="317.634409" y1="216.5" x2="434.365591" y2="216.5" id="Line-2" stroke-linecap="square"></line>
            <rect id="Rectangle" fill="#C0EBE9" x="0.5" y="69.5" width="45" height="174"></rect>
            <line x1="1" y1="222" x2="44.3714286" y2="222.5" id="Line-3" stroke-linecap="square"></line>
            <line x1="1" y1="206" x2="44.3714286" y2="206.5" id="Line-3" stroke-linecap="square"></line>
            <line x1="1" y1="192" x2="44.3714286" y2="192.5" id="Line-3" stroke-linecap="square"></line>
            <line x1="1" y1="174" x2="44.3714286" y2="174.5" id="Line-3" stroke-linecap="square"></line>
            <line x1="1" y1="160" x2="44.3714286" y2="160.5" id="Line-3" stroke-linecap="square"></line>
            <line x1="1" y1="144" x2="44.3714286" y2="144.5" id="Line-3" stroke-linecap="square"></line>
            <line x1="1" y1="80" x2="44.3714286" y2="80.5" id="Line-3" stroke-linecap="square"></line>
            <line x1="1" y1="127" x2="44.3714286" y2="126.5" id="Line-3" stroke-linecap="square"></line>
            <line x1="1" y1="110" x2="44.3714286" y2="110.5" id="Line-3" stroke-linecap="square"></line>
            <ellipse id="Oval" fill="#D8D8D8" cx="143.5" cy="156.5" rx="12" ry="10"></ellipse>
            <line x1="1" y1="97" x2="44.3714286" y2="97.5" id="Line-3" stroke-linecap="square"></line>
        </g>
        <rect id="Rectangle" stroke="#979797" stroke-width="5" fill="#C5CFCE" x="456.5" y="306.5" width="190" height="140"></rect>
        <rect id="Rectangle" stroke="#979797" fill="#DCDAD5" x="474.5" y="320.5" width="59" height="96"></rect>
        <rect id="Rectangle" stroke="#979797" fill="#F7F7F7" x="485.5" y="328.5" width="35" height="12"></rect>
        <rect id="Rectangle" stroke="#979797" fill="#A2ABAD" x="474.5" y="351.5" width="59" height="65"></rect>
        <rect id="Rectangle" stroke="#979797" fill="#FFFFFF" x="543.5" y="320.5" width="80" height="14"></rect>
        <ellipse id="Oval" stroke="#979797" fill="#FFFFFF" cx="584.5" cy="354" rx="12" ry="12.5"></ellipse>
        <rect id="Rectangle" stroke="#979797" stroke-width="5" fill="#DBD9F6" x="453.5" y="156.5" width="193" height="144"></rect>
        <rect id="Rectangle" stroke="#979797" fill="#7CCF96" x="471.5" y="172.5" width="61" height="98"></rect>
        <rect id="Rectangle" stroke="#979797" fill="#F7F7F7" x="484.5" y="180.5" width="35" height="13"></rect>
        <rect id="Rectangle" stroke="#979797" fill="#7DB4F1" x="471.5" y="203.5" width="61" height="67"></rect>
        <rect id="Rectangle" stroke="#979797" fill="#FFFFFF" x="543.5" y="172.5" width="82" height="14"></rect>
        <ellipse id="Oval" stroke="#979797" fill="#FFFFFF" cx="585" cy="206.5" rx="12.5" ry="12"></ellipse>
        <rect id="Rectangle" stroke="#979797" fill="#E5DFDF" x="18.5" y="454.5" width="227" height="166"></rect>
        <rect id="Rectangle" stroke="#979797" fill="#D8D8D8" x="18.5" y="577.5" width="125" height="43"></rect>
        <line x1="27.3095238" y1="536.294118" x2="39.6904762" y2="545.705882" id="Line" stroke="#979797" stroke-linecap="square"></line>
        <rect id="Rectangle" stroke="#979797" fill="#D8D8D8" x="18.5" y="498.5" width="43" height="78"></rect>
        <rect id="Rectangle-2" stroke="#979797" fill="#FFFFFF" x="23.5" y="503.5" width="33" height="25" rx="8"></rect>
        <rect id="Rectangle" stroke="#979797" fill="#FFFFFF" x="25.5" y="537.5" width="29" height="33" rx="8"></rect>
        <path d="M23.5,531.5 C22.6618195,531.5 21.9006214,531.786794 21.350522,532.258308 C20.8304944,532.704046 20.5,533.317248 20.5,534 C20.5,534.682752 20.8304944,535.295954 21.350522,535.741692 C21.9006214,536.213206 22.6618195,536.5 23.5,536.5 C24.3381805,536.5 25.0993786,536.213206 25.649478,535.741692 C26.1695056,535.295954 26.5,534.682752 26.5,534 C26.5,533.317248 26.1695056,532.704046 25.649478,532.258308 C25.0993786,531.786794 24.3381805,531.5 23.5,531.5 Z" id="Oval-2" stroke="#979797" fill="#F7F1F1"></path>
        <path d="M26.811499,535.64019 L23.7651373,536.649088 L29.6317619,545.906783 L26.811499,535.64019 Z" id="Triangle" stroke="#979797" fill="#FFFFFF"></path>
        <rect id="Rectangle" stroke="#979797" fill="#D8D8D8" x="18.5" y="454.5" width="157" height="43"></rect>
        <rect id="Rectangle" stroke="#979797" fill="#D8D8D8" x="144.5" y="577.5" width="46" height="43"></rect>
        <rect id="Rectangle" stroke="#979797" fill="#D8D8D8" x="112.5" y="464.5" width="14" height="16" rx="7"></rect>
        <rect id="Rectangle" stroke="#979797" fill="#D8D8D8" x="95.5" y="461.5" width="48" height="28"></rect>
        <rect id="Rectangle" stroke="#282727" fill="#D8D8D8" x="112.5" y="463.5" width="14" height="16"></rect>
        <line x1="112.3125" y1="465.25" x2="126.6875" y2="465.25" id="Line-3" stroke="#131313" stroke-linecap="square"></line>
        <line x1="112.3125" y1="467.25" x2="126.6875" y2="467.25" id="Line-4" stroke="#030202" stroke-linecap="square"></line>
        <line x1="112.3125" y1="469.25" x2="126.6875" y2="469.25" id="Line-5" stroke="#121212" stroke-linecap="square"></line>
        <line x1="112.3125" y1="471.5" x2="126.6875" y2="471.5" id="Line-6" stroke="#131313" stroke-linecap="square"></line>
        <line x1="112.3125" y1="474.25" x2="126.6875" y2="474.25" id="Line-7" stroke="#121212" stroke-linecap="square"></line>
        <line x1="112.3125" y1="475.5" x2="126.6875" y2="475.5" id="Line-8" stroke="#1E1D1D" stroke-linecap="square"></line>
        <line x1="112.3125" y1="478.25" x2="126.6875" y2="478.25" id="Line-9" stroke="#141414" stroke-linecap="square"></line>
        <rect id="Rectangle" stroke="#303030" fill="#D8D8D8" x="97.5" y="464.5" width="11" height="22" rx="5.5"></rect>
        <rect id="Rectangle" stroke="#2F2E2E" fill="#D8D8D8" x="130.5" y="464.5" width="11" height="20" rx="5.5"></rect>
        <circle id="Oval" stroke="#979797" fill="#000000" cx="136" cy="469" r="1.5"></circle>
        <circle id="Oval" stroke="#979797" fill="#000000" cx="136" cy="480" r="1.5"></circle>
        <ellipse id="Oval" stroke="#979797" fill="#020202" cx="103" cy="475.5" rx="2.5" ry="2"></ellipse>
        <rect id="Rectangle" stroke="#979797" fill="#BEB0B0" x="18.5" y="454.5" width="38" height="17"></rect>
        <line x1="97.3055556" y1="469.25" x2="107.694444" y2="469.25" id="Line-10" stroke="#979797" stroke-linecap="square"></line>
        <line x1="97.3055556" y1="481.5" x2="107.694444" y2="481.5" id="Line-11" stroke="#979797" stroke-linecap="square"></line>
        <line x1="102.5" y1="465.28125" x2="102.5" y2="473.71875" id="Line-12" stroke="#979797" stroke-linecap="square"></line>
        <line x1="102.5" y1="478.28125" x2="102.5" y2="486.71875" id="Line-13" stroke="#979797" stroke-linecap="square"></line>
        <line x1="97.3" y1="475.5" x2="99.7" y2="475.5" id="Line-14" stroke="#979797" stroke-linecap="square"></line>
        <line x1="106.333333" y1="475.5" x2="107.666667" y2="475.5" id="Line-15" stroke="#979797" stroke-linecap="square"></line>
        <line x1="131.3" y1="469.5" x2="133.7" y2="469.5" id="Line-16" stroke="#979797" stroke-linecap="square"></line>
        <line x1="138.333333" y1="469.5" x2="141.666667" y2="469.5" id="Line-17" stroke="#979797" stroke-linecap="square"></line>
        <line x1="131.3" y1="480.25" x2="133.7" y2="480.25" id="Line-18" stroke="#979797" stroke-linecap="square"></line>
        <line x1="138.3" y1="480.25" x2="140.7" y2="480.25" id="Line-19" stroke="#979797" stroke-linecap="square"></line>
        <line x1="135.5" y1="464.285714" x2="135.5" y2="467.714286" id="Line-20" stroke="#979797" stroke-linecap="square"></line>
        <line x1="135.5" y1="471.307692" x2="135.5" y2="478.692308" id="Line-21" stroke="#979797" stroke-linecap="square"></line>
        <line x1="135.75" y1="482.3" x2="135.5" y2="485" id="Line-22" stroke="#979797" stroke-linecap="square"></line>
        <line x1="131.3125" y1="474.5" x2="140.6875" y2="474.5" id="Line-23" stroke="#979797" stroke-linecap="square"></line>
        <rect id="Rectangle" stroke="#979797" fill="#FAF0CA" x="246.5" y="452.5" width="207" height="183"></rect>
        <rect id="Rectangle" stroke="#979797" fill="#896F6F" x="246.5" y="557.5" width="38" height="78"></rect>
        <rect id="Rectangle" stroke="#979797" fill="#A78080" x="285.5" y="603.5" width="79" height="32"></rect>
        <rect id="Rectangle" stroke="#979797" fill-opacity="0.8" fill="#766666" x="365.5" y="603.5" width="79" height="32"></rect>
        <rect id="Rectangle" stroke="#979797" fill="#D8D8D8" x="292.5" y="515.5" width="7" height="31" rx="3.5"></rect>
        <rect id="Rectangle" stroke="#979797" fill="#5D4949" x="246.5" y="452.5" width="169" height="40"></rect>
        <rect id="Rectangle" stroke="#979797" fill="#D8D8D8" x="300.5" y="504.5" width="72" height="53" rx="8"></rect>
        <rect id="Rectangle" stroke="#979797" fill="#D8D8D8" x="373.5" y="515.5" width="6" height="31" rx="3"></rect>
        <rect id="Rectangle" stroke="#979797" stroke-width="6" fill="#FFFFFF" x="454" y="32" width="188" height="119"></rect>
        <line x1="530.5" y1="32.3064516" x2="530.5" y2="50.6935484" id="Line-4" stroke="#979797" stroke-linecap="square"></line>
        <rect id="Rectangle" stroke="#979797" fill="#FFFFFF" x="542.5" y="38.5" width="24" height="39" rx="8"></rect>
        <ellipse id="Oval" stroke="#979797" fill="#FFFFFF" cx="554" cy="60.5" rx="5.5" ry="9"></ellipse>
        <rect id="Rectangle" stroke="#979797" fill="#FFFFFF" x="542.5" y="38.5" width="24" height="7" rx="3.5"></rect>
        <ellipse id="Oval" stroke="#979797" fill="#D8D8D8" cx="487.5" cy="40" rx="2" ry="1.5"></ellipse>
        <rect id="Rectangle" stroke="#000000" fill="#D8D8D8" x="594.5" y="32.5" width="47" height="119"></rect>
        <line x1="487.5" y1="32.3157895" x2="487.5" y2="43.6842105" id="Line-2" stroke="#979797" stroke-linecap="square"></line>
        <ellipse id="Oval" stroke="#979797" fill="#D8D8D8" cx="631" cy="66" rx="2.5" ry="3.5"></ellipse>
        <rect id="Rectangle" stroke="#979797" fill="#FFFFFF" x="455.5" y="32.5" width="65" height="45"></rect>
        <rect id="Rectangle-2" stroke="#979797" fill="#FFFFFF" x="465.5" y="44.5" width="44" height="21"></rect>
        <path d="M627,37.5 L607,37.5 C604.928932,37.5 603.053932,38.3394661 601.696699,39.6966991 C600.339466,41.0539322 599.5,42.9289322 599.5,45 L599.5,138 C599.5,140.071068 600.339466,141.946068 601.696699,143.303301 C603.053932,144.660534 604.928932,145.5 607,145.5 L627,145.5 C629.071068,145.5 630.946068,144.660534 632.303301,143.303301 C633.660534,141.946068 634.5,140.071068 634.5,138 L634.5,45 C634.5,42.9289322 633.660534,41.0539322 632.303301,39.6966991 C630.946068,38.3394661 629.071068,37.5 627,37.5 Z M475,29.5 C474.309644,29.5 473.684644,29.779822 473.232233,30.232233 C472.779822,30.6846441 472.5,31.3096441 472.5,32 C472.5,32.6903559 472.779822,33.3153559 473.232233,33.767767 C473.684644,34.220178 474.309644,34.5 475,34.5 C475.690356,34.5 476.315356,34.220178 476.767767,33.767767 C477.220178,33.3153559 477.5,32.6903559 477.5,32 C477.5,31.3096441 477.220178,30.6846441 476.767767,30.232233 C476.315356,29.779822 475.690356,29.5 475,29.5 Z" id="Rectangle-3" stroke="#979797" fill="#FFFFFF"></path>
        <line x1="631.5" y1="32.3125" x2="631.5" y2="61.6875" id="Line" stroke="#979797" fill="#FFFFFF"></line>
        <line x1="619.25" y1="32.3095238" x2="619.25" y2="57.6904762" id="Line-3" stroke="#979797" stroke-linecap="square"></line>
        <ellipse id="Oval" stroke="#979797" fill="#FFFFFF" cx="619" cy="62" rx="2.5" ry="3.5"></ellipse>
        <rect id="Rectangle" stroke="#979797" fill="#FFFFFF" x="476.5" y="35.5" width="21" height="6" rx="3"></rect>
        <rect id="Rectangle" stroke="#979797" fill="#FFFFFF" x="485.5" y="36.5" width="4" height="11" rx="2"></rect>
        <rect id="Rectangle" stroke="#979797" fill="#FFFFFF" x="526.5" y="51.5" width="8" height="8"></rect>
        <ellipse id="Oval" stroke="#979797" fill="#D8D8D8" cx="531" cy="55.5" rx="3.5" ry="4"></ellipse>
        <line x1="527.307692" y1="55.25" x2="534.692308" y2="55.75" id="Line-5" stroke="#979797" stroke-linecap="square"></line>
        <line x1="529.357143" y1="51.3214286" x2="533.642857" y2="59.6785714" id="Line-6" stroke="#979797" stroke-linecap="square"></line>
        <line x1="530.25" y1="58.6818182" x2="531.75" y2="52.3181818" id="Line-7" stroke="#979797" stroke-linecap="square"></line>
        <line x1="527.333333" y1="56.6666667" x2="534.666667" y2="53.3333333" id="Line-8" stroke="#979797" stroke-linecap="square"></line>
        <rect id="Rectangle" stroke="#979797" stroke-width="6" fill="#FFFFFF" x="454" y="35" width="190" height="116"></rect>
        <line x1="530.5" y1="32.3064516" x2="530.5" y2="50.6935484" id="Line-4" stroke="#979797" stroke-linecap="square"></line>
        <rect id="Rectangle" stroke="#979797" fill="#FFFFFF" x="542.5" y="38.5" width="24" height="39" rx="8"></rect>
        <ellipse id="Oval" stroke="#979797" fill="#FFFFFF" cx="554" cy="60.5" rx="5.5" ry="9"></ellipse>
        <rect id="Rectangle" stroke="#000000" fill="#D8D8D8" x="594.5" y="32.5" width="47" height="119"></rect>
        <ellipse id="Oval" stroke="#979797" fill="#D8D8D8" cx="631" cy="66" rx="2.5" ry="3.5"></ellipse>
        <rect id="Rectangle" stroke="#979797" fill="#FFFFFF" x="455.5" y="32.5" width="65" height="45"></rect>
        <path d="M627,37.5 L607,37.5 C604.928932,37.5 603.053932,38.3394661 601.696699,39.6966991 C600.339466,41.0539322 599.5,42.9289322 599.5,45 L599.5,138 C599.5,140.071068 600.339466,141.946068 601.696699,143.303301 C603.053932,144.660534 604.928932,145.5 607,145.5 L627,145.5 C629.071068,145.5 630.946068,144.660534 632.303301,143.303301 C633.660534,141.946068 634.5,140.071068 634.5,138 L634.5,45 C634.5,42.9289322 633.660534,41.0539322 632.303301,39.6966991 C630.946068,38.3394661 629.071068,37.5 627,37.5 Z M475,29.5 C474.309644,29.5 473.684644,29.779822 473.232233,30.232233 C472.779822,30.6846441 472.5,31.3096441 472.5,32 C472.5,32.6903559 472.779822,33.3153559 473.232233,33.767767 C473.684644,34.220178 474.309644,34.5 475,34.5 C475.690356,34.5 476.315356,34.220178 476.767767,33.767767 C477.220178,33.3153559 477.5,32.6903559 477.5,32 C477.5,31.3096441 477.220178,30.6846441 476.767767,30.232233 C476.315356,29.779822 475.690356,29.5 475,29.5 Z" id="Rectangle-3" stroke="#979797" fill="#FFFFFF"></path>
        <line x1="631.5" y1="32.3125" x2="631.5" y2="61.6875" id="Line" stroke="#979797" fill="#FFFFFF"></line>
        <line x1="619.25" y1="32.3095238" x2="619.25" y2="57.6904762" id="Line-3" stroke="#979797" stroke-linecap="square"></line>
        <ellipse id="Oval" stroke="#979797" fill="#FFFFFF" cx="619" cy="62" rx="2.5" ry="3.5"></ellipse>
        <rect id="Rectangle" stroke="#979797" fill="#FFFFFF" x="526.5" y="51.5" width="8" height="8"></rect>
        <ellipse id="Oval" stroke="#979797" fill="#D8D8D8" cx="531" cy="55.5" rx="3.5" ry="4"></ellipse>
        <line x1="527.307692" y1="55.25" x2="534.692308" y2="55.75" id="Line-5" stroke="#979797" stroke-linecap="square"></line>
        <line x1="529.357143" y1="51.3214286" x2="533.642857" y2="59.6785714" id="Line-6" stroke="#979797" stroke-linecap="square"></line>
        <line x1="530.25" y1="58.6818182" x2="531.75" y2="52.3181818" id="Line-7" stroke="#979797" stroke-linecap="square"></line>
        <line x1="527.333333" y1="56.6666667" x2="534.666667" y2="53.3333333" id="Line-8" stroke="#979797" stroke-linecap="square"></line>
        <rect id="Rectangle-2" stroke="#979797" fill="#FFFFFF" x="463.5" y="49.5" width="44" height="21"></rect>
        <rect id="Rectangle" stroke="#979797" fill="#FFFFFF" x="484.5" y="44.5" width="4" height="11" rx="2"></rect>
        <rect id="Rectangle" stroke="#979797" stroke-width="6" fill="#FFFFFF" x="463" y="450" width="188" height="119"></rect>
        <line x1="539.5" y1="450.306452" x2="539.5" y2="468.693548" id="Line-4" stroke="#979797" stroke-linecap="square"></line>
        <rect id="Rectangle" stroke="#979797" fill="#FFFFFF" x="551.5" y="456.5" width="24" height="39" rx="8"></rect>
        <ellipse id="Oval" stroke="#979797" fill="#FFFFFF" cx="563" cy="478.5" rx="5.5" ry="9"></ellipse>
        <rect id="Rectangle" stroke="#979797" fill="#FFFFFF" x="549.5" y="457.5" width="24" height="7" rx="3.5"></rect>
        <ellipse id="Oval" stroke="#979797" fill="#D8D8D8" cx="494.5" cy="459" rx="2" ry="1.5"></ellipse>
        <rect id="Rectangle" stroke="#000000" fill="#D8D8D8" x="603.5" y="450.5" width="47" height="119"></rect>
        <line x1="494.5" y1="451.315789" x2="494.5" y2="462.684211" id="Line-2" stroke="#979797" stroke-linecap="square"></line>
        <ellipse id="Oval" stroke="#979797" fill="#D8D8D8" cx="640" cy="484" rx="2.5" ry="3.5"></ellipse>
        <rect id="Rectangle" stroke="#979797" fill="#FFFFFF" x="464.5" y="450.5" width="65" height="45"></rect>
        <rect id="Rectangle-2" stroke="#979797" fill="#FFFFFF" x="474.5" y="462.5" width="44" height="21"></rect>
        <path d="M636,455.5 L616,455.5 C613.928932,455.5 612.053932,456.339466 610.696699,457.696699 C609.339466,459.053932 608.5,460.928932 608.5,463 L608.5,556 C608.5,558.071068 609.339466,559.946068 610.696699,561.303301 C612.053932,562.660534 613.928932,563.5 616,563.5 L636,563.5 C638.071068,563.5 639.946068,562.660534 641.303301,561.303301 C642.660534,559.946068 643.5,558.071068 643.5,556 L643.5,463 C643.5,460.928932 642.660534,459.053932 641.303301,457.696699 C639.946068,456.339466 638.071068,455.5 636,455.5 Z M484,447.5 C483.309644,447.5 482.684644,447.779822 482.232233,448.232233 C481.779822,448.684644 481.5,449.309644 481.5,450 C481.5,450.690356 481.779822,451.315356 482.232233,451.767767 C482.684644,452.220178 483.309644,452.5 484,452.5 C484.690356,452.5 485.315356,452.220178 485.767767,451.767767 C486.220178,451.315356 486.5,450.690356 486.5,450 C486.5,449.309644 486.220178,448.684644 485.767767,448.232233 C485.315356,447.779822 484.690356,447.5 484,447.5 Z" id="Rectangle-3" stroke="#979797" fill="#FFFFFF"></path>
        <line x1="640.5" y1="450.3125" x2="640.5" y2="479.6875" id="Line" stroke="#979797" fill="#FFFFFF"></line>
        <line x1="628.25" y1="450.309524" x2="628.25" y2="475.690476" id="Line-3" stroke="#979797" stroke-linecap="square"></line>
        <ellipse id="Oval" stroke="#979797" fill="#FFFFFF" cx="628" cy="480" rx="2.5" ry="3.5"></ellipse>
        <rect id="Rectangle" stroke="#979797" fill="#FFFFFF" x="483.5" y="454.5" width="21" height="6" rx="3"></rect>
        <rect id="Rectangle" stroke="#979797" fill="#FFFFFF" x="492.5" y="455.5" width="4" height="11" rx="2"></rect>
        <rect id="Rectangle" stroke="#979797" fill="#FFFFFF" x="535.5" y="469.5" width="8" height="8"></rect>
        <ellipse id="Oval" stroke="#979797" fill="#D8D8D8" cx="540" cy="473.5" rx="3.5" ry="4"></ellipse>
        <line x1="536.307692" y1="473.25" x2="543.692308" y2="473.75" id="Line-5" stroke="#979797" stroke-linecap="square"></line>
        <line x1="538.357143" y1="469.321429" x2="542.642857" y2="477.678571" id="Line-6" stroke="#979797" stroke-linecap="square"></line>
        <line x1="539.25" y1="476.681818" x2="540.75" y2="470.318182" id="Line-7" stroke="#979797" stroke-linecap="square"></line>
        <line x1="536.333333" y1="474.666667" x2="543.666667" y2="471.333333" id="Line-8" stroke="#979797" stroke-linecap="square"></line>
        <rect id="Rectangle" stroke="#979797" stroke-width="6" fill="#FFFFFF" x="456" y="450" width="188" height="119"></rect>
        <line x1="539.5" y1="450.306452" x2="539.5" y2="468.693548" id="Line-4" stroke="#979797" stroke-linecap="square"></line>
        <rect id="Rectangle" stroke="#979797" fill="#FFFFFF" x="551.5" y="456.5" width="24" height="39" rx="8"></rect>
        <ellipse id="Oval" stroke="#979797" fill="#FFFFFF" cx="563" cy="478.5" rx="5.5" ry="9"></ellipse>
        <rect id="Rectangle" stroke="#000000" fill="#D8D8D8" x="603.5" y="450.5" width="43" height="116"></rect>
        <ellipse id="Oval" stroke="#979797" fill="#D8D8D8" cx="640" cy="484" rx="2.5" ry="3.5"></ellipse>
        <rect id="Rectangle" stroke="#979797" fill="#FFFFFF" x="464.5" y="450.5" width="65" height="45"></rect>
        <path d="M636,455.5 L616,455.5 C613.928932,455.5 612.053932,456.339466 610.696699,457.696699 C609.339466,459.053932 608.5,460.928932 608.5,463 L608.5,556 C608.5,558.071068 609.339466,559.946068 610.696699,561.303301 C612.053932,562.660534 613.928932,563.5 616,563.5 L636,563.5 C638.071068,563.5 639.946068,562.660534 641.303301,561.303301 C642.660534,559.946068 643.5,558.071068 643.5,556 L643.5,463 C643.5,460.928932 642.660534,459.053932 641.303301,457.696699 C639.946068,456.339466 638.071068,455.5 636,455.5 Z M484,447.5 C483.309644,447.5 482.684644,447.779822 482.232233,448.232233 C481.779822,448.684644 481.5,449.309644 481.5,450 C481.5,450.690356 481.779822,451.315356 482.232233,451.767767 C482.684644,452.220178 483.309644,452.5 484,452.5 C484.690356,452.5 485.315356,452.220178 485.767767,451.767767 C486.220178,451.315356 486.5,450.690356 486.5,450 C486.5,449.309644 486.220178,448.684644 485.767767,448.232233 C485.315356,447.779822 484.690356,447.5 484,447.5 Z" id="Rectangle-3" stroke="#979797" fill="#FFFFFF"></path>
        <line x1="640.5" y1="450.3125" x2="640.5" y2="479.6875" id="Line" stroke="#979797" fill="#FFFFFF"></line>
        <line x1="628.25" y1="450.309524" x2="628.25" y2="475.690476" id="Line-3" stroke="#979797" stroke-linecap="square"></line>
        <ellipse id="Oval" stroke="#979797" fill="#FFFFFF" cx="628" cy="480" rx="2.5" ry="3.5"></ellipse>
        <rect id="Rectangle" stroke="#979797" fill="#FFFFFF" x="535.5" y="469.5" width="8" height="8"></rect>
        <ellipse id="Oval" stroke="#979797" fill="#D8D8D8" cx="540" cy="473.5" rx="3.5" ry="4"></ellipse>
        <line x1="536.307692" y1="473.25" x2="543.692308" y2="473.75" id="Line-5" stroke="#979797" stroke-linecap="square"></line>
        <line x1="538.357143" y1="469.321429" x2="542.642857" y2="477.678571" id="Line-6" stroke="#979797" stroke-linecap="square"></line>
        <line x1="539.25" y1="476.681818" x2="540.75" y2="470.318182" id="Line-7" stroke="#979797" stroke-linecap="square"></line>
        <line x1="536.333333" y1="474.666667" x2="543.666667" y2="471.333333" id="Line-8" stroke="#979797" stroke-linecap="square"></line>
        <rect id="Rectangle-2" stroke="#979797" fill="#FFFFFF" x="472.5" y="467.5" width="44" height="21"></rect>
        <rect id="Rectangle" stroke="#979797" fill="#FFFFFF" x="493.5" y="462.5" width="4" height="11" rx="2"></rect>
    </g>
</svg>