<?xml version="1.0" encoding="UTF-8"?>
<svg width="859px" height="607px" viewBox="0 0 859 607" version="1.1" xmlns="http://www.w3.org/2000/svg" xmlns:xlink="http://www.w3.org/1999/xlink">
    <!-- Generator: Sketch 64 (93537) - https://sketch.com -->
    <title>Slice</title>
    <desc>Created with Sketch.</desc>
    <g id="2b2b" stroke="none" stroke-width="1" fill="none" fill-rule="evenodd">
        <rect id="Rectangle" stroke="#979797" stroke-width="5" fill="#F0CCCC" x="193.5" y="422.5" width="247" height="182"></rect>
        <rect id="Rectangle" stroke="#979797" fill="#F3EDDE" x="216.5" y="442.5" width="77" height="124"></rect>
        <rect id="Rectangle" stroke="#979797" fill="#D4F4EB" x="232.5" y="453.5" width="45" height="16"></rect>
        <rect id="Rectangle" stroke="#979797" fill="#E6D5F0" x="216.5" y="482.5" width="77" height="84"></rect>
        <rect id="Rectangle" stroke="#979797" fill="#FFFFFF" x="306.5" y="442.5" width="104" height="19"></rect>
        <circle id="Oval" stroke="#979797" fill="#FFFFFF" cx="359" cy="486" r="15.5"></circle>
        <g id="Group" transform="translate(195.000000, 125.000000)" stroke="#979797">
            <rect id="Rectangle" fill="#E6D9ED" x="0.5" y="0.5" width="435" height="297"></rect>
            <rect id="Rectangle" fill="#EEDCDC" x="216.5" y="194.5" width="52" height="36" rx="8"></rect>
            <rect id="Rectangle" fill="#EEDCDC" x="156.5" y="194.5" width="59" height="36" rx="8"></rect>
            <rect id="Rectangle" fill="#EEDCDC" x="208.5" y="69.5" width="59" height="36" rx="8"></rect>
            <rect id="Rectangle" fill="#EEDCDC" x="268.5" y="200.5" width="7" height="20" rx="3.5"></rect>
            <rect id="Rectangle" fill="#EEDCDC" x="148.5" y="200.5" width="7" height="20" rx="3.5"></rect>
            <line x1="322.636364" y1="83.5" x2="433.363636" y2="83.5" id="Line" stroke-linecap="square"></line>
            <rect id="Rectangle" fill="#D8D8D8" x="317.5" y="69.5" width="118" height="14"></rect>
            <rect id="Rectangle" fill="#EEDCDC" x="268.5" y="77.5" width="7" height="20" rx="3.5"></rect>
            <rect id="Rectangle" fill="#EEDCDC" x="139.5" y="77.5" width="7" height="20" rx="3.5"></rect>
            <rect id="Rectangle" fill="#EEDCDC" x="76.5" y="217.5" width="31" height="6" rx="3"></rect>
            <rect id="Rectangle" fill="#EEDCDC" x="75.5" y="164.5" width="31" height="6" rx="3"></rect>
            <rect id="Rectangle" fill="#EEDCDC" x="75.5" y="134.5" width="31" height="6" rx="3"></rect>
            <rect id="Rectangle" fill="#EEDCDC" x="66.5" y="88.5" width="50" height="46" rx="8"></rect>
            <rect id="Rectangle" fill="#EEDCDC" x="75.5" y="81.5" width="31" height="6" rx="3"></rect>
            <rect id="Rectangle" fill="#EEDCDC" x="66.5" y="170.5" width="50" height="46" rx="8"></rect>
            <ellipse id="Oval" fill="#BCDDAB" cx="207.5" cy="150" rx="44" ry="43.5"></ellipse>
            <rect id="Rectangle" fill="#EEDCDC" x="148.5" y="69.5" width="59" height="36" rx="8"></rect>
            <rect id="Rectangle" fill="#F5E2C7" x="317.5" y="69.5" width="118" height="158"></rect>
            <line x1="331" y1="78" x2="433.364198" y2="148.418033" id="Line-2" stroke-linecap="square"></line>
            <line x1="316.634409" y1="77.5" x2="433.365591" y2="77.5" id="Line-2" stroke-linecap="square"></line>
            <line x1="332" y1="216.244699" x2="432.727101" y2="150.420848" id="Line-2" stroke-linecap="square"></line>
            <line x1="332.25" y1="69" x2="331.5" y2="225.414179" id="Line-2" stroke-linecap="square"></line>
            <line x1="317.634409" y1="216.5" x2="434.365591" y2="216.5" id="Line-2" stroke-linecap="square"></line>
            <rect id="Rectangle" fill="#C0EBE9" x="0.5" y="69.5" width="45" height="174"></rect>
            <line x1="1" y1="222" x2="44.3714286" y2="222.5" id="Line-3" stroke-linecap="square"></line>
            <line x1="1" y1="206" x2="44.3714286" y2="206.5" id="Line-3" stroke-linecap="square"></line>
            <line x1="1" y1="192" x2="44.3714286" y2="192.5" id="Line-3" stroke-linecap="square"></line>
            <line x1="1" y1="174" x2="44.3714286" y2="174.5" id="Line-3" stroke-linecap="square"></line>
            <line x1="1" y1="160" x2="44.3714286" y2="160.5" id="Line-3" stroke-linecap="square"></line>
            <line x1="1" y1="144" x2="44.3714286" y2="144.5" id="Line-3" stroke-linecap="square"></line>
            <line x1="1" y1="80" x2="44.3714286" y2="80.5" id="Line-3" stroke-linecap="square"></line>
            <line x1="1" y1="127" x2="44.3714286" y2="126.5" id="Line-3" stroke-linecap="square"></line>
            <line x1="1" y1="110" x2="44.3714286" y2="110.5" id="Line-3" stroke-linecap="square"></line>
            <ellipse id="Oval" fill="#D8D8D8" cx="143.5" cy="156.5" rx="12" ry="10"></ellipse>
            <line x1="1" y1="97" x2="44.3714286" y2="97.5" id="Line-3" stroke-linecap="square"></line>
        </g>
        <rect id="Rectangle" stroke="#979797" stroke-width="5" fill="#C5CFCE" x="440.5" y="424.5" width="190" height="140"></rect>
        <rect id="Rectangle" stroke="#979797" fill="#DCDAD5" x="458.5" y="438.5" width="59" height="96"></rect>
        <rect id="Rectangle" stroke="#979797" fill="#F7F7F7" x="469.5" y="446.5" width="35" height="12"></rect>
        <rect id="Rectangle" stroke="#979797" fill="#A2ABAD" x="458.5" y="469.5" width="59" height="65"></rect>
        <rect id="Rectangle" stroke="#979797" fill="#FFFFFF" x="527.5" y="438.5" width="80" height="14"></rect>
        <ellipse id="Oval" stroke="#979797" fill="#FFFFFF" cx="568.5" cy="472" rx="12" ry="12.5"></ellipse>
        <rect id="Rectangle" stroke="#979797" fill="#E5DFDF" x="631.5" y="120.5" width="227" height="184"></rect>
        <rect id="Rectangle" stroke="#979797" fill="#D8D8D8" x="631.5" y="256.5" width="125" height="48"></rect>
        <line x1="640.309524" y1="212.323529" x2="652.690476" y2="222.676471" id="Line" stroke="#979797" stroke-linecap="square"></line>
        <rect id="Rectangle" stroke="#979797" fill="#D8D8D8" x="631.5" y="170.5" width="43" height="86"></rect>
        <rect id="Rectangle-2" stroke="#979797" fill="#FFFFFF" x="636.5" y="175.5" width="33" height="28" rx="8"></rect>
        <rect id="Rectangle" stroke="#979797" fill="#FFFFFF" x="638.5" y="213.5" width="29" height="37" rx="8"></rect>
        <path d="M631.5,188.5 C630.66182,188.5 629.900621,188.786794 629.350522,189.258308 C628.830494,189.704046 628.5,190.317248 628.5,191 C628.5,191.682752 628.830494,192.295954 629.350522,192.741692 C629.900621,193.213206 630.66182,193.5 631.5,193.5 C632.33818,193.5 633.099379,193.213206 633.649478,192.741692 C634.169506,192.295954 634.5,191.682752 634.5,191 C634.5,190.317248 634.169506,189.704046 633.649478,189.258308 C633.099379,188.786794 632.33818,188.5 631.5,188.5 Z" id="Oval-2" stroke="#979797" fill="#F7F1F1"></path>
        <path d="M634.811499,192.64019 L631.765137,193.649088 L637.631762,202.906783 L634.811499,192.64019 Z" id="Triangle" stroke="#979797" fill="#FFFFFF"></path>
        <rect id="Rectangle" stroke="#979797" fill="#D8D8D8" x="631.5" y="120.5" width="157" height="48"></rect>
        <rect id="Rectangle" stroke="#979797" fill="#D8D8D8" x="757.5" y="256.5" width="46" height="48"></rect>
        <rect id="Rectangle" stroke="#979797" fill="#D8D8D8" x="725.5" y="131.5" width="14" height="18" rx="7"></rect>
        <rect id="Rectangle" stroke="#979797" fill="#D8D8D8" x="708.5" y="128.5" width="48" height="31"></rect>
        <rect id="Rectangle" stroke="#282727" fill="#D8D8D8" x="725.5" y="130.5" width="14" height="18"></rect>
        <line x1="725.3125" y1="134.5" x2="739.6875" y2="134.5" id="Line-4" stroke="#030202" stroke-linecap="square"></line>
        <line x1="725.3125" y1="137.25" x2="739.6875" y2="137.25" id="Line-5" stroke="#121212" stroke-linecap="square"></line>
        <line x1="725.3125" y1="139.5" x2="739.6875" y2="139.5" id="Line-6" stroke="#131313" stroke-linecap="square"></line>
        <line x1="725.3125" y1="142.5" x2="739.6875" y2="142.5" id="Line-7" stroke="#121212" stroke-linecap="square"></line>
        <line x1="725.3125" y1="143.5" x2="739.6875" y2="143.5" id="Line-8" stroke="#1E1D1D" stroke-linecap="square"></line>
        <line x1="725.3125" y1="147.25" x2="739.6875" y2="147.25" id="Line-9" stroke="#141414" stroke-linecap="square"></line>
        <rect id="Rectangle" stroke="#303030" fill="#D8D8D8" x="710.5" y="131.5" width="11" height="25" rx="5.5"></rect>
        <rect id="Rectangle" stroke="#2F2E2E" fill="#D8D8D8" x="743.5" y="131.5" width="11" height="22" rx="5.5"></rect>
        <ellipse id="Oval" stroke="#979797" fill="#000000" cx="749" cy="136.5" rx="1.5" ry="2"></ellipse>
        <circle id="Oval" stroke="#979797" fill="#000000" cx="749" cy="149" r="1.5"></circle>
        <circle id="Oval" stroke="#979797" fill="#020202" cx="716" cy="144" r="2.5"></circle>
        <rect id="Rectangle" stroke="#979797" fill="#BEB0B0" x="631.5" y="121.5" width="38" height="19"></rect>
        <line x1="710.305556" y1="137.25" x2="720.694444" y2="137.25" id="Line-10" stroke="#979797" stroke-linecap="square"></line>
        <line x1="710.305556" y1="150.5" x2="720.694444" y2="150.5" id="Line-11" stroke="#979797" stroke-linecap="square"></line>
        <line x1="715.5" y1="132.3125" x2="715.5" y2="141.6875" id="Line-12" stroke="#979797" stroke-linecap="square"></line>
        <line x1="715.5" y1="147.3125" x2="715.5" y2="156.6875" id="Line-13" stroke="#979797" stroke-linecap="square"></line>
        <line x1="710.3" y1="143.5" x2="712.7" y2="143.5" id="Line-14" stroke="#979797" stroke-linecap="square"></line>
        <line x1="719.333333" y1="143.5" x2="720.666667" y2="143.5" id="Line-15" stroke="#979797" stroke-linecap="square"></line>
        <line x1="744.3" y1="137.5" x2="746.7" y2="137.5" id="Line-16" stroke="#979797" stroke-linecap="square"></line>
        <line x1="751.333333" y1="137.5" x2="754.666667" y2="137.5" id="Line-17" stroke="#979797" stroke-linecap="square"></line>
        <line x1="744.3" y1="149.25" x2="746.7" y2="149.25" id="Line-18" stroke="#979797" stroke-linecap="square"></line>
        <line x1="751.3" y1="149.25" x2="753.7" y2="149.25" id="Line-19" stroke="#979797" stroke-linecap="square"></line>
        <line x1="748.5" y1="131.357143" x2="748.5" y2="135.642857" id="Line-20" stroke="#979797" stroke-linecap="square"></line>
        <line x1="748.5" y1="139.346154" x2="748.5" y2="147.653846" id="Line-21" stroke="#979797" stroke-linecap="square"></line>
        <line x1="748.75" y1="151.3" x2="748.5" y2="154" id="Line-22" stroke="#979797" stroke-linecap="square"></line>
        <line x1="744.3125" y1="142.5" x2="753.6875" y2="142.5" id="Line-23" stroke="#979797" stroke-linecap="square"></line>
        <rect id="Rectangle" stroke="#979797" fill="#FAF0CA" x="20.5" y="125.5" width="174" height="181"></rect>
        <rect id="Rectangle" stroke="#979797" fill="#896F6F" x="20.5" y="228.5" width="31" height="78"></rect>
        <rect id="Rectangle" stroke="#979797" fill="#A78080" x="52.5" y="274.5" width="64" height="32"></rect>
        <rect id="Rectangle" stroke="#979797" fill-opacity="0.8" fill="#766666" x="117.5" y="274.5" width="64" height="32"></rect>
        <rect id="Rectangle" stroke="#979797" fill="#D8D8D8" x="58.5" y="188.5" width="5" height="29" rx="2.5"></rect>
        <rect id="Rectangle" stroke="#979797" fill="#5D4949" x="20.5" y="125.5" width="137" height="40"></rect>
        <rect id="Rectangle" stroke="#979797" fill="#D8D8D8" x="64.5" y="177.5" width="58" height="51" rx="8"></rect>
        <rect id="Rectangle" stroke="#979797" fill="#D8D8D8" x="123.5" y="188.5" width="5" height="29" rx="2.5"></rect>
        <rect id="Rectangle" stroke="#979797" stroke-width="6" fill="#FFFFFF" x="439" y="4" width="188" height="119"></rect>
        <rect id="Rectangle" stroke="#979797" fill="#FFFFFF" x="527.5" y="10.5" width="24" height="39" rx="8"></rect>
        <ellipse id="Oval" stroke="#979797" fill="#FFFFFF" cx="539" cy="32.5" rx="5.5" ry="9"></ellipse>
        <rect id="Rectangle" stroke="#979797" fill="#FFFFFF" x="440.5" y="4.5" width="65" height="45"></rect>
        <rect id="Rectangle-2" stroke="#979797" fill="#FFFFFF" x="450.5" y="16.5" width="44" height="21"></rect>
        <path d="M612,9.5 L592,9.5 C589.928932,9.5 588.053932,10.3394661 586.696699,11.6966991 C585.339466,13.0539322 584.5,14.9289322 584.5,17 L584.5,110 C584.5,112.071068 585.339466,113.946068 586.696699,115.303301 C588.053932,116.660534 589.928932,117.5 592,117.5 L612,117.5 C614.071068,117.5 615.946068,116.660534 617.303301,115.303301 C618.660534,113.946068 619.5,112.071068 619.5,110 L619.5,17 C619.5,14.9289322 618.660534,13.0539322 617.303301,11.6966991 C615.946068,10.3394661 614.071068,9.5 612,9.5 Z M460,1.5 C459.309644,1.5 458.684644,1.77982203 458.232233,2.23223305 C457.779822,2.68464406 457.5,3.30964406 457.5,4 C457.5,4.69035594 457.779822,5.31535594 458.232233,5.76776695 C458.684644,6.22017797 459.309644,6.5 460,6.5 C460.690356,6.5 461.315356,6.22017797 461.767767,5.76776695 C462.220178,5.31535594 462.5,4.69035594 462.5,4 C462.5,3.30964406 462.220178,2.68464406 461.767767,2.23223305 C461.315356,1.77982203 460.690356,1.5 460,1.5 Z" id="Rectangle-3" stroke="#979797" fill="#FFFFFF"></path>
        <rect id="Rectangle" stroke="#979797" fill="#FFFFFF" x="511.5" y="23.5" width="8" height="8"></rect>
        <ellipse id="Oval" stroke="#979797" fill="#D8D8D8" cx="516" cy="27.5" rx="3.5" ry="4"></ellipse>
        <line x1="512.307692" y1="27.25" x2="519.692308" y2="27.75" id="Line-5" stroke="#979797" stroke-linecap="square"></line>
        <line x1="514.357143" y1="23.3214286" x2="518.642857" y2="31.6785714" id="Line-6" stroke="#979797" stroke-linecap="square"></line>
        <line x1="515.25" y1="30.6818182" x2="516.75" y2="24.3181818" id="Line-7" stroke="#979797" stroke-linecap="square"></line>
        <line x1="512.333333" y1="28.6666667" x2="519.666667" y2="25.3333333" id="Line-8" stroke="#979797" stroke-linecap="square"></line>
        <rect id="Rectangle" stroke="#979797" stroke-width="6" fill="#FFFFFF" x="439" y="4" width="188" height="119"></rect>
        <rect id="Rectangle" stroke="#979797" fill="#FFFFFF" x="527.5" y="10.5" width="24" height="39" rx="8"></rect>
        <ellipse id="Oval" stroke="#979797" fill="#FFFFFF" cx="539" cy="32.5" rx="5.5" ry="9"></ellipse>
        <rect id="Rectangle" stroke="#979797" fill="#FFFFFF" x="440.5" y="4.5" width="65" height="45"></rect>
        <path d="M612,9.5 L592,9.5 C589.928932,9.5 588.053932,10.3394661 586.696699,11.6966991 C585.339466,13.0539322 584.5,14.9289322 584.5,17 L584.5,110 C584.5,112.071068 585.339466,113.946068 586.696699,115.303301 C588.053932,116.660534 589.928932,117.5 592,117.5 L612,117.5 C614.071068,117.5 615.946068,116.660534 617.303301,115.303301 C618.660534,113.946068 619.5,112.071068 619.5,110 L619.5,17 C619.5,14.9289322 618.660534,13.0539322 617.303301,11.6966991 C615.946068,10.3394661 614.071068,9.5 612,9.5 Z M460,1.5 C459.309644,1.5 458.684644,1.77982203 458.232233,2.23223305 C457.779822,2.68464406 457.5,3.30964406 457.5,4 C457.5,4.69035594 457.779822,5.31535594 458.232233,5.76776695 C458.684644,6.22017797 459.309644,6.5 460,6.5 C460.690356,6.5 461.315356,6.22017797 461.767767,5.76776695 C462.220178,5.31535594 462.5,4.69035594 462.5,4 C462.5,3.30964406 462.220178,2.68464406 461.767767,2.23223305 C461.315356,1.77982203 460.690356,1.5 460,1.5 Z" id="Rectangle-3" stroke="#979797" fill="#FFFFFF"></path>
        <rect id="Rectangle" stroke="#979797" fill="#FFFFFF" x="511.5" y="23.5" width="8" height="8"></rect>
        <ellipse id="Oval" stroke="#979797" fill="#D8D8D8" cx="516" cy="27.5" rx="3.5" ry="4"></ellipse>
        <line x1="512.307692" y1="27.25" x2="519.692308" y2="27.75" id="Line-5" stroke="#979797" stroke-linecap="square"></line>
        <line x1="514.357143" y1="23.3214286" x2="518.642857" y2="31.6785714" id="Line-6" stroke="#979797" stroke-linecap="square"></line>
        <line x1="515.25" y1="30.6818182" x2="516.75" y2="24.3181818" id="Line-7" stroke="#979797" stroke-linecap="square"></line>
        <line x1="512.333333" y1="28.6666667" x2="519.666667" y2="25.3333333" id="Line-8" stroke="#979797" stroke-linecap="square"></line>
        <rect id="Rectangle-2" stroke="#979797" fill="#FFFFFF" x="448.5" y="21.5" width="44" height="21"></rect>
        <rect id="Rectangle" stroke="#979797" fill="#FFFFFF" x="469.5" y="16.5" width="4" height="11" rx="2"></rect>
        <rect id="Rectangle" stroke="#979797" stroke-width="6" fill="#FFFFFF" x="633" y="304" width="188" height="119"></rect>
        <line x1="709.5" y1="304.306452" x2="709.5" y2="322.693548" id="Line-4" stroke="#979797" stroke-linecap="square"></line>
        <rect id="Rectangle" stroke="#979797" fill="#FFFFFF" x="721.5" y="310.5" width="24" height="39" rx="8"></rect>
        <ellipse id="Oval" stroke="#979797" fill="#FFFFFF" cx="733" cy="332.5" rx="5.5" ry="9"></ellipse>
        <rect id="Rectangle" stroke="#000000" fill="#D8D8D8" x="773.5" y="304.5" width="47" height="119"></rect>
        <ellipse id="Oval" stroke="#979797" fill="#D8D8D8" cx="810" cy="338" rx="2.5" ry="3.5"></ellipse>
        <rect id="Rectangle" stroke="#979797" fill="#FFFFFF" x="634.5" y="304.5" width="65" height="45"></rect>
        <rect id="Rectangle-2" stroke="#979797" fill="#FFFFFF" x="644.5" y="316.5" width="44" height="21"></rect>
        <path d="M806,309.5 L786,309.5 C783.928932,309.5 782.053932,310.339466 780.696699,311.696699 C779.339466,313.053932 778.5,314.928932 778.5,317 L778.5,410 C778.5,412.071068 779.339466,413.946068 780.696699,415.303301 C782.053932,416.660534 783.928932,417.5 786,417.5 L806,417.5 C808.071068,417.5 809.946068,416.660534 811.303301,415.303301 C812.660534,413.946068 813.5,412.071068 813.5,410 L813.5,317 C813.5,314.928932 812.660534,313.053932 811.303301,311.696699 C809.946068,310.339466 808.071068,309.5 806,309.5 Z M654,301.5 C653.309644,301.5 652.684644,301.779822 652.232233,302.232233 C651.779822,302.684644 651.5,303.309644 651.5,304 C651.5,304.690356 651.779822,305.315356 652.232233,305.767767 C652.684644,306.220178 653.309644,306.5 654,306.5 C654.690356,306.5 655.315356,306.220178 655.767767,305.767767 C656.220178,305.315356 656.5,304.690356 656.5,304 C656.5,303.309644 656.220178,302.684644 655.767767,302.232233 C655.315356,301.779822 654.690356,301.5 654,301.5 Z" id="Rectangle-3" stroke="#979797" fill="#FFFFFF"></path>
        <line x1="810.5" y1="304.3125" x2="810.5" y2="333.6875" id="Line" stroke="#979797" fill="#FFFFFF"></line>
        <line x1="798.25" y1="304.309524" x2="798.25" y2="329.690476" id="Line-3" stroke="#979797" stroke-linecap="square"></line>
        <ellipse id="Oval" stroke="#979797" fill="#FFFFFF" cx="798" cy="334" rx="2.5" ry="3.5"></ellipse>
        <rect id="Rectangle" stroke="#979797" fill="#FFFFFF" x="705.5" y="323.5" width="8" height="8"></rect>
        <ellipse id="Oval" stroke="#979797" fill="#D8D8D8" cx="710" cy="327.5" rx="3.5" ry="4"></ellipse>
        <line x1="706.307692" y1="327.25" x2="713.692308" y2="327.75" id="Line-5" stroke="#979797" stroke-linecap="square"></line>
        <line x1="708.357143" y1="323.321429" x2="712.642857" y2="331.678571" id="Line-6" stroke="#979797" stroke-linecap="square"></line>
        <line x1="709.25" y1="330.681818" x2="710.75" y2="324.318182" id="Line-7" stroke="#979797" stroke-linecap="square"></line>
        <line x1="706.333333" y1="328.666667" x2="713.666667" y2="325.333333" id="Line-8" stroke="#979797" stroke-linecap="square"></line>
        <rect id="Rectangle" stroke="#979797" stroke-width="6" fill="#FFFFFF" x="633" y="304" width="188" height="119"></rect>
        <line x1="709.5" y1="304.306452" x2="709.5" y2="322.693548" id="Line-4" stroke="#979797" stroke-linecap="square"></line>
        <rect id="Rectangle" stroke="#979797" fill="#FFFFFF" x="721.5" y="310.5" width="24" height="39" rx="8"></rect>
        <ellipse id="Oval" stroke="#979797" fill="#FFFFFF" cx="733" cy="332.5" rx="5.5" ry="9"></ellipse>
        <rect id="Rectangle" stroke="#000000" fill="#D8D8D8" x="773.5" y="304.5" width="47" height="119"></rect>
        <ellipse id="Oval" stroke="#979797" fill="#D8D8D8" cx="810" cy="338" rx="2.5" ry="3.5"></ellipse>
        <rect id="Rectangle" stroke="#979797" fill="#FFFFFF" x="634.5" y="304.5" width="65" height="45"></rect>
        <path d="M806,309.5 L786,309.5 C783.928932,309.5 782.053932,310.339466 780.696699,311.696699 C779.339466,313.053932 778.5,314.928932 778.5,317 L778.5,410 C778.5,412.071068 779.339466,413.946068 780.696699,415.303301 C782.053932,416.660534 783.928932,417.5 786,417.5 L806,417.5 C808.071068,417.5 809.946068,416.660534 811.303301,415.303301 C812.660534,413.946068 813.5,412.071068 813.5,410 L813.5,317 C813.5,314.928932 812.660534,313.053932 811.303301,311.696699 C809.946068,310.339466 808.071068,309.5 806,309.5 Z M654,301.5 C653.309644,301.5 652.684644,301.779822 652.232233,302.232233 C651.779822,302.684644 651.5,303.309644 651.5,304 C651.5,304.690356 651.779822,305.315356 652.232233,305.767767 C652.684644,306.220178 653.309644,306.5 654,306.5 C654.690356,306.5 655.315356,306.220178 655.767767,305.767767 C656.220178,305.315356 656.5,304.690356 656.5,304 C656.5,303.309644 656.220178,302.684644 655.767767,302.232233 C655.315356,301.779822 654.690356,301.5 654,301.5 Z" id="Rectangle-3" stroke="#979797" fill="#FFFFFF"></path>
        <line x1="810.5" y1="304.3125" x2="810.5" y2="333.6875" id="Line" stroke="#979797" fill="#FFFFFF"></line>
        <line x1="798.25" y1="304.309524" x2="798.25" y2="329.690476" id="Line-3" stroke="#979797" stroke-linecap="square"></line>
        <ellipse id="Oval" stroke="#979797" fill="#FFFFFF" cx="798" cy="334" rx="2.5" ry="3.5"></ellipse>
        <rect id="Rectangle" stroke="#979797" fill="#FFFFFF" x="705.5" y="323.5" width="8" height="8"></rect>
        <ellipse id="Oval" stroke="#979797" fill="#D8D8D8" cx="710" cy="327.5" rx="3.5" ry="4"></ellipse>
        <line x1="706.307692" y1="327.25" x2="713.692308" y2="327.75" id="Line-5" stroke="#979797" stroke-linecap="square"></line>
        <line x1="708.357143" y1="323.321429" x2="712.642857" y2="331.678571" id="Line-6" stroke="#979797" stroke-linecap="square"></line>
        <line x1="709.25" y1="330.681818" x2="710.75" y2="324.318182" id="Line-7" stroke="#979797" stroke-linecap="square"></line>
        <line x1="706.333333" y1="328.666667" x2="713.666667" y2="325.333333" id="Line-8" stroke="#979797" stroke-linecap="square"></line>
        <rect id="Rectangle-2" stroke="#979797" fill="#FFFFFF" x="642.5" y="321.5" width="44" height="21"></rect>
        <rect id="Rectangle" stroke="#979797" fill="#FFFFFF" x="663.5" y="316.5" width="4" height="11" rx="2"></rect>
    </g>
</svg>