<?xml version="1.0" encoding="UTF-8"?>
<svg width="656px" height="668px" viewBox="0 0 656 668" version="1.1" xmlns="http://www.w3.org/2000/svg" xmlns:xlink="http://www.w3.org/1999/xlink">
    <!-- Generator: Sketch 64 (93537) - https://sketch.com -->
    <title>Slice</title>
    <desc>Created with Sketch.</desc>
    <g id="2b2b" stroke="none" stroke-width="1" fill="none" fill-rule="evenodd">
        <g id="Group" transform="translate(217.000000, 181.000000)" stroke="#979797">
            <rect id="Rectangle" fill="#E6D9ED" x="0.5" y="0.5" width="435" height="297"></rect>
            <rect id="Rectangle" fill="#EEDCDC" x="216.5" y="194.5" width="52" height="36" rx="8"></rect>
            <rect id="Rectangle" fill="#EEDCDC" x="156.5" y="194.5" width="59" height="36" rx="8"></rect>
            <rect id="Rectangle" fill="#EEDCDC" x="208.5" y="69.5" width="59" height="36" rx="8"></rect>
            <rect id="Rectangle" fill="#EEDCDC" x="268.5" y="200.5" width="7" height="20" rx="3.5"></rect>
            <rect id="Rectangle" fill="#EEDCDC" x="148.5" y="200.5" width="7" height="20" rx="3.5"></rect>
            <line x1="322.636364" y1="83.5" x2="433.363636" y2="83.5" id="Line" stroke-linecap="square"></line>
            <rect id="Rectangle" fill="#D8D8D8" x="317.5" y="69.5" width="118" height="14"></rect>
            <rect id="Rectangle" fill="#EEDCDC" x="268.5" y="77.5" width="7" height="20" rx="3.5"></rect>
            <rect id="Rectangle" fill="#EEDCDC" x="139.5" y="77.5" width="7" height="20" rx="3.5"></rect>
            <rect id="Rectangle" fill="#EEDCDC" x="76.5" y="217.5" width="31" height="6" rx="3"></rect>
            <rect id="Rectangle" fill="#EEDCDC" x="75.5" y="164.5" width="31" height="6" rx="3"></rect>
            <rect id="Rectangle" fill="#EEDCDC" x="75.5" y="134.5" width="31" height="6" rx="3"></rect>
            <rect id="Rectangle" fill="#EEDCDC" x="66.5" y="88.5" width="50" height="46" rx="8"></rect>
            <rect id="Rectangle" fill="#EEDCDC" x="75.5" y="81.5" width="31" height="6" rx="3"></rect>
            <rect id="Rectangle" fill="#EEDCDC" x="66.5" y="170.5" width="50" height="46" rx="8"></rect>
            <ellipse id="Oval" fill="#BCDDAB" cx="207.5" cy="150" rx="44" ry="43.5"></ellipse>
            <rect id="Rectangle" fill="#EEDCDC" x="148.5" y="69.5" width="59" height="36" rx="8"></rect>
            <rect id="Rectangle" fill="#F5E2C7" x="317.5" y="69.5" width="118" height="158"></rect>
            <line x1="331" y1="78" x2="433.364198" y2="148.418033" id="Line-2" stroke-linecap="square"></line>
            <line x1="316.634409" y1="77.5" x2="433.365591" y2="77.5" id="Line-2" stroke-linecap="square"></line>
            <line x1="332" y1="216.244699" x2="432.727101" y2="150.420848" id="Line-2" stroke-linecap="square"></line>
            <line x1="332.25" y1="69" x2="331.5" y2="225.414179" id="Line-2" stroke-linecap="square"></line>
            <line x1="317.634409" y1="216.5" x2="434.365591" y2="216.5" id="Line-2" stroke-linecap="square"></line>
            <rect id="Rectangle" fill="#C0EBE9" x="0.5" y="69.5" width="45" height="174"></rect>
            <line x1="1" y1="222" x2="44.3714286" y2="222.5" id="Line-3" stroke-linecap="square"></line>
            <line x1="1" y1="206" x2="44.3714286" y2="206.5" id="Line-3" stroke-linecap="square"></line>
            <line x1="1" y1="192" x2="44.3714286" y2="192.5" id="Line-3" stroke-linecap="square"></line>
            <line x1="1" y1="174" x2="44.3714286" y2="174.5" id="Line-3" stroke-linecap="square"></line>
            <line x1="1" y1="160" x2="44.3714286" y2="160.5" id="Line-3" stroke-linecap="square"></line>
            <line x1="1" y1="144" x2="44.3714286" y2="144.5" id="Line-3" stroke-linecap="square"></line>
            <line x1="1" y1="80" x2="44.3714286" y2="80.5" id="Line-3" stroke-linecap="square"></line>
            <line x1="1" y1="127" x2="44.3714286" y2="126.5" id="Line-3" stroke-linecap="square"></line>
            <line x1="1" y1="110" x2="44.3714286" y2="110.5" id="Line-3" stroke-linecap="square"></line>
            <ellipse id="Oval" fill="#D8D8D8" cx="143.5" cy="156.5" rx="12" ry="10"></ellipse>
            <line x1="1" y1="97" x2="44.3714286" y2="97.5" id="Line-3" stroke-linecap="square"></line>
        </g>
        <rect id="Rectangle" stroke="#979797" stroke-width="5" fill="#F3E8B1" x="219.5" y="482.5" width="248" height="183"></rect>
        <rect id="Rectangle" stroke="#979797" fill="#CBF4D8" x="245.5" y="507.5" width="77" height="125"></rect>
        <rect id="Rectangle" stroke="#979797" fill="#F7F7F7" x="261.5" y="518.5" width="45" height="16"></rect>
        <rect id="Rectangle" stroke="#979797" fill="#F1B37D" x="245.5" y="547.5" width="77" height="85"></rect>
        <rect id="Rectangle" stroke="#979797" fill="#FFFFFF" x="335.5" y="507.5" width="105" height="19"></rect>
        <ellipse id="Oval" stroke="#979797" fill="#FFFFFF" cx="388.5" cy="551" rx="16" ry="15.5"></ellipse>
        <rect id="Rectangle" stroke="#979797" stroke-width="5" fill="#DBD9F6" x="454.5" y="34.5" width="196" height="144"></rect>
        <rect id="Rectangle" stroke="#979797" fill="#7CCF96" x="472.5" y="50.5" width="61" height="98"></rect>
        <rect id="Rectangle" stroke="#979797" fill="#F7F7F7" x="485.5" y="58.5" width="35" height="13"></rect>
        <rect id="Rectangle" stroke="#979797" fill="#7DB4F1" x="472.5" y="81.5" width="61" height="67"></rect>
        <rect id="Rectangle" stroke="#979797" fill="#FFFFFF" x="544.5" y="50.5" width="82" height="14"></rect>
        <ellipse id="Oval" stroke="#979797" fill="#FFFFFF" cx="586" cy="84.5" rx="12.5" ry="12"></ellipse>
        <rect id="Rectangle" stroke="#979797" fill="#E5DFDF" x="208.5" y="13.5" width="246" height="169"></rect>
        <rect id="Rectangle" stroke="#979797" fill="#D8D8D8" x="208.5" y="138.5" width="135" height="44"></rect>
        <line x1="218.333333" y1="96.3235294" x2="231.666667" y2="106.676471" id="Line" stroke="#979797" stroke-linecap="square"></line>
        <rect id="Rectangle" stroke="#979797" fill="#D8D8D8" x="208.5" y="58.5" width="47" height="79"></rect>
        <rect id="Rectangle-2" stroke="#979797" fill="#FFFFFF" x="213.5" y="63.5" width="36" height="25" rx="8"></rect>
        <rect id="Rectangle" stroke="#979797" fill="#FFFFFF" x="216.5" y="97.5" width="31" height="34" rx="8"></rect>
        <path d="M214,91.5 C213.014204,91.5 212.118654,91.793369 211.471573,92.2786797 C210.884207,92.7192039 210.5,93.321511 210.5,94 C210.5,94.678489 210.884207,95.2807961 211.471573,95.7213203 C212.118654,96.206631 213.014204,96.5 214,96.5 C214.985796,96.5 215.881346,96.206631 216.528427,95.7213203 C217.115793,95.2807961 217.5,94.678489 217.5,94 C217.5,93.321511 217.115793,92.7192039 216.528427,92.2786797 C215.881346,91.793369 214.985796,91.5 214,91.5 Z" id="Oval-2" stroke="#979797" fill="#F7F1F1"></path>
        <path d="M217.335053,95.631009 L213.78473,96.7508193 L220.621873,107.026249 L217.335053,95.631009 Z" id="Triangle" stroke="#979797" fill="#FFFFFF"></path>
        <rect id="Rectangle" stroke="#979797" fill="#D8D8D8" x="208.5" y="13.5" width="170" height="44"></rect>
        <rect id="Rectangle" stroke="#979797" fill="#D8D8D8" x="344.5" y="138.5" width="50" height="44"></rect>
        <rect id="Rectangle" stroke="#979797" fill="#D8D8D8" x="310.5" y="23.5" width="15" height="16" rx="7.5"></rect>
        <rect id="Rectangle" stroke="#979797" fill="#D8D8D8" x="291.5" y="20.5" width="52" height="29"></rect>
        <rect id="Rectangle" stroke="#282727" fill="#D8D8D8" x="310.5" y="22.5" width="15" height="16"></rect>
        <line x1="310.333333" y1="24.5" x2="325.666667" y2="24.5" id="Line-3" stroke="#131313" stroke-linecap="square"></line>
        <line x1="310.333333" y1="26.5" x2="325.666667" y2="26.5" id="Line-4" stroke="#030202" stroke-linecap="square"></line>
        <line x1="310.333333" y1="28.5" x2="325.666667" y2="28.5" id="Line-5" stroke="#121212" stroke-linecap="square"></line>
        <line x1="310.333333" y1="30.5" x2="325.666667" y2="30.5" id="Line-6" stroke="#131313" stroke-linecap="square"></line>
        <line x1="310.333333" y1="33.5" x2="325.666667" y2="33.5" id="Line-7" stroke="#121212" stroke-linecap="square"></line>
        <line x1="310.333333" y1="34.5" x2="325.666667" y2="34.5" id="Line-8" stroke="#1E1D1D" stroke-linecap="square"></line>
        <line x1="310.333333" y1="37.5" x2="325.666667" y2="37.5" id="Line-9" stroke="#141414" stroke-linecap="square"></line>
        <rect id="Rectangle" stroke="#303030" fill="#D8D8D8" x="294.5" y="23.5" width="12" height="23" rx="6"></rect>
        <rect id="Rectangle" stroke="#2F2E2E" fill="#D8D8D8" x="329.5" y="23.5" width="12" height="21" rx="6"></rect>
        <circle id="Oval" stroke="#979797" fill="#000000" cx="336" cy="28" r="1.5"></circle>
        <ellipse id="Oval" stroke="#979797" fill="#000000" cx="336" cy="39.5" rx="1.5" ry="2"></ellipse>
        <ellipse id="Oval" stroke="#979797" fill="#020202" cx="300" cy="34.5" rx="2.5" ry="2"></ellipse>
        <rect id="Rectangle" stroke="#979797" fill="#BEB0B0" x="208.5" y="13.5" width="41" height="17"></rect>
        <line x1="294.305556" y1="28.5" x2="304.694444" y2="28.5" id="Line-10" stroke="#979797" stroke-linecap="square"></line>
        <line x1="294.305556" y1="41" x2="304.694444" y2="41" id="Line-11" stroke="#979797" stroke-linecap="square"></line>
        <line x1="299.5" y1="24.28125" x2="299.5" y2="32.71875" id="Line-12" stroke="#979797" stroke-linecap="square"></line>
        <line x1="299.5" y1="37.3125" x2="299.5" y2="46.6875" id="Line-13" stroke="#979797" stroke-linecap="square"></line>
        <line x1="294.3" y1="34.5" x2="296.7" y2="34.5" id="Line-14" stroke="#979797" stroke-linecap="square"></line>
        <line x1="303.333333" y1="34.5" x2="304.666667" y2="34.5" id="Line-15" stroke="#979797" stroke-linecap="square"></line>
        <line x1="330.4" y1="28.5" x2="333.6" y2="28.5" id="Line-16" stroke="#979797" stroke-linecap="square"></line>
        <line x1="338.333333" y1="28.5" x2="341.666667" y2="28.5" id="Line-17" stroke="#979797" stroke-linecap="square"></line>
        <line x1="330.4" y1="39.5" x2="333.6" y2="39.5" id="Line-18" stroke="#979797" stroke-linecap="square"></line>
        <line x1="338.3" y1="39.5" x2="340.7" y2="39.5" id="Line-19" stroke="#979797" stroke-linecap="square"></line>
        <line x1="335.5" y1="23.2857143" x2="335.5" y2="26.7142857" id="Line-20" stroke="#979797" stroke-linecap="square"></line>
        <line x1="335.5" y1="30.3076923" x2="335.5" y2="37.6923077" id="Line-21" stroke="#979797" stroke-linecap="square"></line>
        <line x1="335.75" y1="42.3" x2="335.5" y2="45" id="Line-22" stroke="#979797" stroke-linecap="square"></line>
        <line x1="330.34375" y1="33.5" x2="340.65625" y2="33.5" id="Line-23" stroke="#979797" stroke-linecap="square"></line>
        <rect id="Rectangle" stroke="#979797" fill="#FAF0CA" x="43.5" y="178.5" width="174" height="181"></rect>
        <rect id="Rectangle" stroke="#979797" fill="#896F6F" x="43.5" y="281.5" width="31" height="78"></rect>
        <rect id="Rectangle" stroke="#979797" fill="#A78080" x="75.5" y="327.5" width="64" height="32"></rect>
        <rect id="Rectangle" stroke="#979797" fill-opacity="0.8" fill="#766666" x="140.5" y="327.5" width="64" height="32"></rect>
        <rect id="Rectangle" stroke="#979797" fill="#D8D8D8" x="81.5" y="241.5" width="5" height="29" rx="2.5"></rect>
        <rect id="Rectangle" stroke="#979797" fill="#5D4949" x="43.5" y="178.5" width="137" height="40"></rect>
        <rect id="Rectangle" stroke="#979797" fill="#D8D8D8" x="87.5" y="230.5" width="58" height="51" rx="8"></rect>
        <rect id="Rectangle" stroke="#979797" fill="#D8D8D8" x="146.5" y="241.5" width="5" height="29" rx="2.5"></rect>
        <rect id="Rectangle" stroke="#979797" stroke-width="6" fill="#FFFFFF" x="29" y="357" width="188" height="119"></rect>
        <line x1="105.5" y1="357.306452" x2="105.5" y2="375.693548" id="Line-4" stroke="#979797" stroke-linecap="square"></line>
        <rect id="Rectangle" stroke="#979797" fill="#FFFFFF" x="117.5" y="363.5" width="24" height="39" rx="8"></rect>
        <ellipse id="Oval" stroke="#979797" fill="#FFFFFF" cx="129" cy="385.5" rx="5.5" ry="9"></ellipse>
        <rect id="Rectangle" stroke="#979797" fill="#FFFFFF" x="117.5" y="363.5" width="24" height="7" rx="3.5"></rect>
        <ellipse id="Oval" stroke="#979797" fill="#D8D8D8" cx="62.5" cy="365" rx="2" ry="1.5"></ellipse>
        <rect id="Rectangle" stroke="#000000" fill="#D8D8D8" x="169.5" y="357.5" width="47" height="119"></rect>
        <line x1="62.5" y1="357.315789" x2="62.5" y2="368.684211" id="Line-2" stroke="#979797" stroke-linecap="square"></line>
        <ellipse id="Oval" stroke="#979797" fill="#D8D8D8" cx="206" cy="391" rx="2.5" ry="3.5"></ellipse>
        <rect id="Rectangle" stroke="#979797" fill="#FFFFFF" x="30.5" y="357.5" width="65" height="45"></rect>
        <rect id="Rectangle-2" stroke="#979797" fill="#FFFFFF" x="40.5" y="369.5" width="44" height="21"></rect>
        <path d="M202,362.5 L182,362.5 C179.928932,362.5 178.053932,363.339466 176.696699,364.696699 C175.339466,366.053932 174.5,367.928932 174.5,370 L174.5,463 C174.5,465.071068 175.339466,466.946068 176.696699,468.303301 C178.053932,469.660534 179.928932,470.5 182,470.5 L202,470.5 C204.071068,470.5 205.946068,469.660534 207.303301,468.303301 C208.660534,466.946068 209.5,465.071068 209.5,463 L209.5,370 C209.5,367.928932 208.660534,366.053932 207.303301,364.696699 C205.946068,363.339466 204.071068,362.5 202,362.5 Z M50,354.5 C49.3096441,354.5 48.6846441,354.779822 48.232233,355.232233 C47.779822,355.684644 47.5,356.309644 47.5,357 C47.5,357.690356 47.779822,358.315356 48.232233,358.767767 C48.6846441,359.220178 49.3096441,359.5 50,359.5 C50.6903559,359.5 51.3153559,359.220178 51.767767,358.767767 C52.220178,358.315356 52.5,357.690356 52.5,357 C52.5,356.309644 52.220178,355.684644 51.767767,355.232233 C51.3153559,354.779822 50.6903559,354.5 50,354.5 Z" id="Rectangle-3" stroke="#979797" fill="#FFFFFF"></path>
        <line x1="206.5" y1="357.3125" x2="206.5" y2="386.6875" id="Line" stroke="#979797" fill="#FFFFFF"></line>
        <line x1="194.25" y1="357.309524" x2="194.25" y2="382.690476" id="Line-3" stroke="#979797" stroke-linecap="square"></line>
        <ellipse id="Oval" stroke="#979797" fill="#FFFFFF" cx="194" cy="387" rx="2.5" ry="3.5"></ellipse>
        <rect id="Rectangle" stroke="#979797" fill="#FFFFFF" x="51.5" y="360.5" width="21" height="6" rx="3"></rect>
        <rect id="Rectangle" stroke="#979797" fill="#FFFFFF" x="60.5" y="361.5" width="4" height="11" rx="2"></rect>
        <rect id="Rectangle" stroke="#979797" fill="#FFFFFF" x="101.5" y="376.5" width="8" height="8"></rect>
        <ellipse id="Oval" stroke="#979797" fill="#D8D8D8" cx="106" cy="380.5" rx="3.5" ry="4"></ellipse>
        <line x1="102.307692" y1="380.25" x2="109.692308" y2="380.75" id="Line-5" stroke="#979797" stroke-linecap="square"></line>
        <line x1="104.357143" y1="376.321429" x2="108.642857" y2="384.678571" id="Line-6" stroke="#979797" stroke-linecap="square"></line>
        <line x1="105.25" y1="383.681818" x2="106.75" y2="377.318182" id="Line-7" stroke="#979797" stroke-linecap="square"></line>
        <line x1="102.333333" y1="381.666667" x2="109.666667" y2="378.333333" id="Line-8" stroke="#979797" stroke-linecap="square"></line>
        <rect id="Rectangle" stroke="#979797" stroke-width="6" fill="#FFFFFF" x="29" y="357" width="188" height="119"></rect>
        <line x1="105.5" y1="357.306452" x2="105.5" y2="375.693548" id="Line-4" stroke="#979797" stroke-linecap="square"></line>
        <rect id="Rectangle" stroke="#979797" fill="#FFFFFF" x="117.5" y="363.5" width="24" height="39" rx="8"></rect>
        <ellipse id="Oval" stroke="#979797" fill="#FFFFFF" cx="129" cy="385.5" rx="5.5" ry="9"></ellipse>
        <rect id="Rectangle" stroke="#000000" fill="#D8D8D8" x="169.5" y="357.5" width="47" height="119"></rect>
        <ellipse id="Oval" stroke="#979797" fill="#D8D8D8" cx="206" cy="391" rx="2.5" ry="3.5"></ellipse>
        <rect id="Rectangle" stroke="#979797" fill="#FFFFFF" x="30.5" y="357.5" width="65" height="45"></rect>
        <path d="M202,362.5 L182,362.5 C179.928932,362.5 178.053932,363.339466 176.696699,364.696699 C175.339466,366.053932 174.5,367.928932 174.5,370 L174.5,463 C174.5,465.071068 175.339466,466.946068 176.696699,468.303301 C178.053932,469.660534 179.928932,470.5 182,470.5 L202,470.5 C204.071068,470.5 205.946068,469.660534 207.303301,468.303301 C208.660534,466.946068 209.5,465.071068 209.5,463 L209.5,370 C209.5,367.928932 208.660534,366.053932 207.303301,364.696699 C205.946068,363.339466 204.071068,362.5 202,362.5 Z M50,354.5 C49.3096441,354.5 48.6846441,354.779822 48.232233,355.232233 C47.779822,355.684644 47.5,356.309644 47.5,357 C47.5,357.690356 47.779822,358.315356 48.232233,358.767767 C48.6846441,359.220178 49.3096441,359.5 50,359.5 C50.6903559,359.5 51.3153559,359.220178 51.767767,358.767767 C52.220178,358.315356 52.5,357.690356 52.5,357 C52.5,356.309644 52.220178,355.684644 51.767767,355.232233 C51.3153559,354.779822 50.6903559,354.5 50,354.5 Z" id="Rectangle-3" stroke="#979797" fill="#FFFFFF"></path>
        <line x1="206.5" y1="357.3125" x2="206.5" y2="386.6875" id="Line" stroke="#979797" fill="#FFFFFF"></line>
        <line x1="194.25" y1="357.309524" x2="194.25" y2="382.690476" id="Line-3" stroke="#979797" stroke-linecap="square"></line>
        <ellipse id="Oval" stroke="#979797" fill="#FFFFFF" cx="194" cy="387" rx="2.5" ry="3.5"></ellipse>
        <rect id="Rectangle" stroke="#979797" fill="#FFFFFF" x="101.5" y="376.5" width="8" height="8"></rect>
        <ellipse id="Oval" stroke="#979797" fill="#D8D8D8" cx="106" cy="380.5" rx="3.5" ry="4"></ellipse>
        <line x1="102.307692" y1="380.25" x2="109.692308" y2="380.75" id="Line-5" stroke="#979797" stroke-linecap="square"></line>
        <line x1="104.357143" y1="376.321429" x2="108.642857" y2="384.678571" id="Line-6" stroke="#979797" stroke-linecap="square"></line>
        <line x1="105.25" y1="383.681818" x2="106.75" y2="377.318182" id="Line-7" stroke="#979797" stroke-linecap="square"></line>
        <line x1="102.333333" y1="381.666667" x2="109.666667" y2="378.333333" id="Line-8" stroke="#979797" stroke-linecap="square"></line>
        <rect id="Rectangle-2" stroke="#979797" fill="#FFFFFF" x="38.5" y="374.5" width="44" height="21"></rect>
        <rect id="Rectangle" stroke="#979797" fill="#FFFFFF" x="59.5" y="369.5" width="4" height="11" rx="2"></rect>
        <rect id="Rectangle" stroke="#979797" stroke-width="6" fill="#FFFFFF" x="465" y="477" width="188" height="119"></rect>
        <line x1="541.5" y1="477.306452" x2="541.5" y2="495.693548" id="Line-4" stroke="#979797" stroke-linecap="square"></line>
        <rect id="Rectangle" stroke="#979797" fill="#FFFFFF" x="553.5" y="483.5" width="24" height="39" rx="8"></rect>
        <ellipse id="Oval" stroke="#979797" fill="#FFFFFF" cx="565" cy="505.5" rx="5.5" ry="9"></ellipse>
        <rect id="Rectangle" stroke="#979797" fill="#FFFFFF" x="551.5" y="484.5" width="24" height="7" rx="3.5"></rect>
        <ellipse id="Oval" stroke="#979797" fill="#D8D8D8" cx="496.5" cy="486" rx="2" ry="1.5"></ellipse>
        <rect id="Rectangle" stroke="#000000" fill="#D8D8D8" x="605.5" y="477.5" width="47" height="119"></rect>
        <line x1="496.5" y1="478.315789" x2="496.5" y2="489.684211" id="Line-2" stroke="#979797" stroke-linecap="square"></line>
        <ellipse id="Oval" stroke="#979797" fill="#D8D8D8" cx="642" cy="511" rx="2.5" ry="3.5"></ellipse>
        <rect id="Rectangle" stroke="#979797" fill="#FFFFFF" x="466.5" y="477.5" width="65" height="45"></rect>
        <rect id="Rectangle-2" stroke="#979797" fill="#FFFFFF" x="476.5" y="489.5" width="44" height="21"></rect>
        <path d="M638,482.5 L618,482.5 C615.928932,482.5 614.053932,483.339466 612.696699,484.696699 C611.339466,486.053932 610.5,487.928932 610.5,490 L610.5,583 C610.5,585.071068 611.339466,586.946068 612.696699,588.303301 C614.053932,589.660534 615.928932,590.5 618,590.5 L638,590.5 C640.071068,590.5 641.946068,589.660534 643.303301,588.303301 C644.660534,586.946068 645.5,585.071068 645.5,583 L645.5,490 C645.5,487.928932 644.660534,486.053932 643.303301,484.696699 C641.946068,483.339466 640.071068,482.5 638,482.5 Z M486,474.5 C485.309644,474.5 484.684644,474.779822 484.232233,475.232233 C483.779822,475.684644 483.5,476.309644 483.5,477 C483.5,477.690356 483.779822,478.315356 484.232233,478.767767 C484.684644,479.220178 485.309644,479.5 486,479.5 C486.690356,479.5 487.315356,479.220178 487.767767,478.767767 C488.220178,478.315356 488.5,477.690356 488.5,477 C488.5,476.309644 488.220178,475.684644 487.767767,475.232233 C487.315356,474.779822 486.690356,474.5 486,474.5 Z" id="Rectangle-3" stroke="#979797" fill="#FFFFFF"></path>
        <line x1="642.5" y1="477.3125" x2="642.5" y2="506.6875" id="Line" stroke="#979797" fill="#FFFFFF"></line>
        <line x1="630.25" y1="477.309524" x2="630.25" y2="502.690476" id="Line-3" stroke="#979797" stroke-linecap="square"></line>
        <ellipse id="Oval" stroke="#979797" fill="#FFFFFF" cx="630" cy="507" rx="2.5" ry="3.5"></ellipse>
        <rect id="Rectangle" stroke="#979797" fill="#FFFFFF" x="485.5" y="481.5" width="21" height="6" rx="3"></rect>
        <rect id="Rectangle" stroke="#979797" fill="#FFFFFF" x="494.5" y="482.5" width="4" height="11" rx="2"></rect>
        <rect id="Rectangle" stroke="#979797" fill="#FFFFFF" x="537.5" y="496.5" width="8" height="8"></rect>
        <ellipse id="Oval" stroke="#979797" fill="#D8D8D8" cx="542" cy="500.5" rx="3.5" ry="4"></ellipse>
        <line x1="538.307692" y1="500.25" x2="545.692308" y2="500.75" id="Line-5" stroke="#979797" stroke-linecap="square"></line>
        <line x1="540.357143" y1="496.321429" x2="544.642857" y2="504.678571" id="Line-6" stroke="#979797" stroke-linecap="square"></line>
        <line x1="541.25" y1="503.681818" x2="542.75" y2="497.318182" id="Line-7" stroke="#979797" stroke-linecap="square"></line>
        <line x1="538.333333" y1="501.666667" x2="545.666667" y2="498.333333" id="Line-8" stroke="#979797" stroke-linecap="square"></line>
        <rect id="Rectangle" stroke="#979797" stroke-width="6" fill="#FFFFFF" x="465" y="477" width="188" height="119"></rect>
        <line x1="541.5" y1="477.306452" x2="541.5" y2="495.693548" id="Line-4" stroke="#979797" stroke-linecap="square"></line>
        <rect id="Rectangle" stroke="#979797" fill="#FFFFFF" x="553.5" y="483.5" width="24" height="39" rx="8"></rect>
        <ellipse id="Oval" stroke="#979797" fill="#FFFFFF" cx="565" cy="505.5" rx="5.5" ry="9"></ellipse>
        <rect id="Rectangle" stroke="#000000" fill="#D8D8D8" x="605.5" y="477.5" width="47" height="119"></rect>
        <ellipse id="Oval" stroke="#979797" fill="#D8D8D8" cx="642" cy="511" rx="2.5" ry="3.5"></ellipse>
        <rect id="Rectangle" stroke="#979797" fill="#FFFFFF" x="466.5" y="477.5" width="65" height="45"></rect>
        <path d="M638,482.5 L618,482.5 C615.928932,482.5 614.053932,483.339466 612.696699,484.696699 C611.339466,486.053932 610.5,487.928932 610.5,490 L610.5,583 C610.5,585.071068 611.339466,586.946068 612.696699,588.303301 C614.053932,589.660534 615.928932,590.5 618,590.5 L638,590.5 C640.071068,590.5 641.946068,589.660534 643.303301,588.303301 C644.660534,586.946068 645.5,585.071068 645.5,583 L645.5,490 C645.5,487.928932 644.660534,486.053932 643.303301,484.696699 C641.946068,483.339466 640.071068,482.5 638,482.5 Z M486,474.5 C485.309644,474.5 484.684644,474.779822 484.232233,475.232233 C483.779822,475.684644 483.5,476.309644 483.5,477 C483.5,477.690356 483.779822,478.315356 484.232233,478.767767 C484.684644,479.220178 485.309644,479.5 486,479.5 C486.690356,479.5 487.315356,479.220178 487.767767,478.767767 C488.220178,478.315356 488.5,477.690356 488.5,477 C488.5,476.309644 488.220178,475.684644 487.767767,475.232233 C487.315356,474.779822 486.690356,474.5 486,474.5 Z" id="Rectangle-3" stroke="#979797" fill="#FFFFFF"></path>
        <line x1="642.5" y1="477.3125" x2="642.5" y2="506.6875" id="Line" stroke="#979797" fill="#FFFFFF"></line>
        <line x1="630.25" y1="477.309524" x2="630.25" y2="502.690476" id="Line-3" stroke="#979797" stroke-linecap="square"></line>
        <ellipse id="Oval" stroke="#979797" fill="#FFFFFF" cx="630" cy="507" rx="2.5" ry="3.5"></ellipse>
        <rect id="Rectangle" stroke="#979797" fill="#FFFFFF" x="537.5" y="496.5" width="8" height="8"></rect>
        <ellipse id="Oval" stroke="#979797" fill="#D8D8D8" cx="542" cy="500.5" rx="3.5" ry="4"></ellipse>
        <line x1="538.307692" y1="500.25" x2="545.692308" y2="500.75" id="Line-5" stroke="#979797" stroke-linecap="square"></line>
        <line x1="540.357143" y1="496.321429" x2="544.642857" y2="504.678571" id="Line-6" stroke="#979797" stroke-linecap="square"></line>
        <line x1="541.25" y1="503.681818" x2="542.75" y2="497.318182" id="Line-7" stroke="#979797" stroke-linecap="square"></line>
        <line x1="538.333333" y1="501.666667" x2="545.666667" y2="498.333333" id="Line-8" stroke="#979797" stroke-linecap="square"></line>
        <rect id="Rectangle-2" stroke="#979797" fill="#FFFFFF" x="474.5" y="494.5" width="44" height="21"></rect>
        <rect id="Rectangle" stroke="#979797" fill="#FFFFFF" x="495.5" y="489.5" width="4" height="11" rx="2"></rect>
    </g>
</svg>